<svg width="114" height="12" viewBox="0 0 114 12" fill="none" xmlns="http://www.w3.org/2000/svg">
<path d="M4.43013 7.784H2.78213V2.856L0.846125 3.704C0.696792 3.62933 0.568792 3.528 0.462125 3.4C0.355458 3.272 0.302125 3.10667 0.302125 2.904C0.302125 2.50933 0.542125 2.22133 1.02213 2.04L3.15013 1.16H3.53413C3.80079 1.16 4.01413 1.24 4.17413 1.4C4.34479 1.56 4.43013 1.77867 4.43013 2.056V7.784ZM2.78213 6.776H4.43013V11C4.35546 11.032 4.24879 11.0587 4.11013 11.08C3.97146 11.112 3.82213 11.128 3.66213 11.128C3.36346 11.128 3.13946 11.0693 2.99013 10.952C2.85146 10.8347 2.78213 10.6373 2.78213 10.36V6.776ZM13.392 2.136C13.392 2.28533 13.3547 2.42933 13.28 2.568C13.2053 2.696 13.1093 2.79733 12.992 2.872C12.7467 2.744 12.4747 2.63733 12.176 2.552C11.8773 2.46667 11.5627 2.424 11.232 2.424C10.4533 2.424 9.80267 2.69067 9.28 3.224C8.768 3.75733 8.48533 4.57867 8.432 5.688C8.64533 5.496 8.96 5.29333 9.376 5.08C9.80267 4.86667 10.3093 4.76 10.896 4.76C11.8453 4.76 12.6187 5.032 13.216 5.576C13.8133 6.12 14.112 6.91467 14.112 7.96C14.112 8.61067 13.968 9.18133 13.68 9.672C13.4027 10.1627 13.0027 10.5467 12.48 10.824C11.968 11.0907 11.344 11.224 10.608 11.224C9.86133 11.224 9.2 11.0533 8.624 10.712C8.048 10.3707 7.59467 9.848 7.264 9.144C6.944 8.44 6.784 7.53333 6.784 6.424C6.784 5.45333 6.90133 4.62667 7.136 3.944C7.37067 3.26133 7.69067 2.712 8.096 2.296C8.50133 1.86933 8.96533 1.56 9.488 1.368C10.0107 1.16533 10.5547 1.064 11.12 1.064C11.5467 1.064 11.9307 1.10667 12.272 1.192C12.6133 1.27733 12.8853 1.4 13.088 1.56C13.2907 1.70933 13.392 1.90133 13.392 2.136ZM10.608 9.88C11.1627 9.88 11.6107 9.70933 11.952 9.368C12.2933 9.016 12.464 8.54133 12.464 7.944C12.464 7.32533 12.288 6.86667 11.936 6.568C11.5947 6.25867 11.1573 6.104 10.624 6.104C10.1333 6.104 9.70133 6.21067 9.328 6.424C8.95467 6.62667 8.656 6.87733 8.432 7.176L8.464 7.192C8.464 8.01333 8.656 8.66933 9.04 9.16C9.424 9.64 9.94667 9.88 10.608 9.88ZM22.7993 4.632C22.1273 4.632 21.5619 4.86133 21.1033 5.32C20.6446 5.768 20.4153 6.41867 20.4153 7.272C20.4153 8.11467 20.6339 8.76 21.0713 9.208C21.5193 9.656 22.0953 9.88 22.7993 9.88C23.2153 9.88 23.5673 9.82667 23.8553 9.72C24.1433 9.60267 24.3939 9.47467 24.6073 9.336C24.7459 9.42133 24.8579 9.52267 24.9433 9.64C25.0286 9.75733 25.0713 9.896 25.0713 10.056C25.0713 10.3867 24.8526 10.664 24.4153 10.888C23.9779 11.1013 23.4126 11.208 22.7193 11.208C21.9406 11.208 21.2526 11.064 20.6553 10.776C20.0579 10.488 19.5886 10.0507 19.2473 9.464C18.9166 8.87733 18.7513 8.14667 18.7513 7.272C18.7513 6.38667 18.9273 5.65067 19.2793 5.064C19.6313 4.47733 20.1059 4.03467 20.7033 3.736C21.3006 3.43733 21.9566 3.288 22.6713 3.288C23.3539 3.288 23.9086 3.41067 24.3353 3.656C24.7726 3.89067 24.9913 4.168 24.9913 4.488C24.9913 4.63733 24.9486 4.77067 24.8633 4.888C24.7886 5.00533 24.6926 5.10133 24.5753 5.176C24.3513 5.02667 24.1006 4.89867 23.8233 4.792C23.5459 4.68533 23.2046 4.632 22.7993 4.632ZM29.7013 9.944C30.0853 9.944 30.4106 9.90667 30.6773 9.832C30.9546 9.74667 31.1573 9.66667 31.2853 9.592V7.528L29.5093 7.704C29.0186 7.74667 28.6453 7.85867 28.3893 8.04C28.1439 8.21067 28.0213 8.46667 28.0213 8.808C28.0213 9.16 28.1599 9.43733 28.4373 9.64C28.7146 9.84267 29.1359 9.944 29.7013 9.944ZM29.6533 3.288C30.6453 3.288 31.4293 3.50667 32.0053 3.944C32.5919 4.37067 32.8853 5.048 32.8853 5.976V9.704C32.8853 9.94933 32.8319 10.1413 32.7253 10.28C32.6186 10.4187 32.4693 10.5413 32.2773 10.648C31.9999 10.808 31.6373 10.9413 31.1893 11.048C30.7519 11.1653 30.2559 11.224 29.7013 11.224C28.6666 11.224 27.8559 11.0267 27.2693 10.632C26.6933 10.2267 26.4053 9.63467 26.4053 8.856C26.4053 8.152 26.6346 7.61333 27.0933 7.24C27.5519 6.856 28.2026 6.62667 29.0453 6.552L31.2853 6.328V5.96C31.2853 5.48 31.1306 5.13333 30.8213 4.92C30.5119 4.70667 30.0906 4.6 29.5573 4.6C29.1306 4.6 28.7146 4.65867 28.3093 4.776C27.9146 4.89333 27.5626 5.02667 27.2533 5.176C27.1573 5.09067 27.0719 4.98933 26.9973 4.872C26.9226 4.744 26.8853 4.61067 26.8853 4.472C26.8853 4.14133 27.0666 3.89067 27.4293 3.72C27.7279 3.58133 28.0693 3.47467 28.4533 3.4C28.8479 3.32533 29.2479 3.288 29.6533 3.288ZM35.1695 6.776L36.8015 6.92V10.968C36.7375 10.9893 36.6362 11.016 36.4975 11.048C36.3588 11.08 36.2095 11.096 36.0495 11.096C35.7508 11.096 35.5268 11.0373 35.3775 10.92C35.2388 10.8027 35.1695 10.6107 35.1695 10.344V6.776ZM36.8015 7.736L35.1695 7.592V0.615999C35.2335 0.594666 35.3348 0.568 35.4735 0.535999C35.6122 0.504 35.7562 0.488 35.9055 0.488C36.2148 0.488 36.4388 0.546666 36.5775 0.664C36.7268 0.770666 36.8015 0.962666 36.8015 1.24V7.736ZM39.0549 1.224C39.0549 0.946666 39.1509 0.717333 39.3429 0.535999C39.5349 0.354666 39.7695 0.264 40.0469 0.264C40.3455 0.264 40.5855 0.354666 40.7669 0.535999C40.9482 0.717333 41.0389 0.946666 41.0389 1.224C41.0389 1.49067 40.9482 1.72 40.7669 1.912C40.5855 2.09333 40.3455 2.184 40.0469 2.184C39.7695 2.184 39.5349 2.09333 39.3429 1.912C39.1509 1.72 39.0549 1.49067 39.0549 1.224ZM39.2309 6.776H40.8789V10.968C40.8042 10.9893 40.6975 11.016 40.5589 11.048C40.4309 11.08 40.2869 11.096 40.1269 11.096C39.8282 11.096 39.6042 11.0373 39.4549 10.92C39.3055 10.8027 39.2309 10.6107 39.2309 10.344V6.776ZM40.8789 7.592H39.2309V3.56C39.3055 3.53867 39.4122 3.51733 39.5509 3.496C39.6895 3.464 39.8389 3.448 39.9989 3.448C40.2975 3.448 40.5162 3.50667 40.6549 3.624C40.8042 3.73067 40.8789 3.92267 40.8789 4.2V7.592ZM44.5265 5.272V3.976H47.8225C47.8652 4.02933 47.9025 4.11467 47.9345 4.232C47.9772 4.34933 47.9985 4.47733 47.9985 4.616C47.9985 4.84 47.9452 5.00533 47.8385 5.112C47.7425 5.21867 47.5985 5.272 47.4065 5.272H44.5265ZM44.7985 3.096V5.064H43.1985V3.016C43.1985 2.36533 43.3265 1.83733 43.5825 1.432C43.8385 1.02667 44.1958 0.727999 44.6545 0.535999C45.1132 0.343999 45.6465 0.247999 46.2545 0.247999C46.9052 0.247999 47.4065 0.333333 47.7585 0.504C48.1105 0.674666 48.2865 0.909333 48.2865 1.208C48.2865 1.34667 48.2545 1.47467 48.1905 1.592C48.1372 1.70933 48.0678 1.81067 47.9825 1.896C47.7905 1.8 47.5558 1.72533 47.2785 1.672C47.0118 1.608 46.7398 1.576 46.4625 1.576C45.8652 1.576 45.4385 1.69333 45.1825 1.928C44.9265 2.16267 44.7985 2.552 44.7985 3.096ZM43.1985 4.44H44.8465V10.968C44.7718 10.9893 44.6652 11.016 44.5265 11.048C44.3985 11.08 44.2545 11.096 44.0945 11.096C43.7958 11.096 43.5718 11.0373 43.4225 10.92C43.2732 10.8027 43.1985 10.6107 43.1985 10.344V4.44ZM49.5665 1.224C49.5665 0.946666 49.6625 0.717333 49.8545 0.535999C50.0465 0.354666 50.2812 0.264 50.5585 0.264C50.8572 0.264 51.0972 0.354666 51.2785 0.535999C51.4598 0.717333 51.5505 0.946666 51.5505 1.224C51.5505 1.49067 51.4598 1.72 51.2785 1.912C51.0972 2.09333 50.8572 2.184 50.5585 2.184C50.2812 2.184 50.0465 2.09333 49.8545 1.912C49.6625 1.72 49.5665 1.49067 49.5665 1.224ZM49.7425 6.776H51.3905V10.968C51.3158 10.9893 51.2092 11.016 51.0705 11.048C50.9425 11.08 50.7985 11.096 50.6385 11.096C50.3398 11.096 50.1158 11.0373 49.9665 10.92C49.8172 10.8027 49.7425 10.6107 49.7425 10.344V6.776ZM51.3905 7.592H49.7425V3.56C49.8172 3.53867 49.9238 3.51733 50.0625 3.496C50.2012 3.464 50.3505 3.448 50.5105 3.448C50.8092 3.448 51.0278 3.50667 51.1665 3.624C51.3158 3.73067 51.3905 3.92267 51.3905 4.2V7.592ZM57.3461 4.632C56.6741 4.632 56.1088 4.86133 55.6501 5.32C55.1915 5.768 54.9621 6.41867 54.9621 7.272C54.9621 8.11467 55.1808 8.76 55.6181 9.208C56.0661 9.656 56.6421 9.88 57.3461 9.88C57.7621 9.88 58.1141 9.82667 58.4021 9.72C58.6901 9.60267 58.9408 9.47467 59.1541 9.336C59.2928 9.42133 59.4048 9.52267 59.4901 9.64C59.5755 9.75733 59.6181 9.896 59.6181 10.056C59.6181 10.3867 59.3995 10.664 58.9621 10.888C58.5248 11.1013 57.9595 11.208 57.2661 11.208C56.4875 11.208 55.7995 11.064 55.2021 10.776C54.6048 10.488 54.1355 10.0507 53.7941 9.464C53.4635 8.87733 53.2981 8.14667 53.2981 7.272C53.2981 6.38667 53.4741 5.65067 53.8261 5.064C54.1781 4.47733 54.6528 4.03467 55.2501 3.736C55.8475 3.43733 56.5035 3.288 57.2181 3.288C57.9008 3.288 58.4555 3.41067 58.8821 3.656C59.3195 3.89067 59.5381 4.168 59.5381 4.488C59.5381 4.63733 59.4955 4.77067 59.4101 4.888C59.3355 5.00533 59.2395 5.10133 59.1221 5.176C58.8981 5.02667 58.6475 4.89867 58.3701 4.792C58.0928 4.68533 57.7515 4.632 57.3461 4.632ZM64.2481 9.944C64.6321 9.944 64.9575 9.90667 65.2241 9.832C65.5015 9.74667 65.7041 9.66667 65.8321 9.592V7.528L64.0561 7.704C63.5655 7.74667 63.1921 7.85867 62.9361 8.04C62.6908 8.21067 62.5681 8.46667 62.5681 8.808C62.5681 9.16 62.7068 9.43733 62.9841 9.64C63.2615 9.84267 63.6828 9.944 64.2481 9.944ZM64.2001 3.288C65.1921 3.288 65.9761 3.50667 66.5521 3.944C67.1388 4.37067 67.4321 5.048 67.4321 5.976V9.704C67.4321 9.94933 67.3788 10.1413 67.2721 10.28C67.1655 10.4187 67.0161 10.5413 66.8241 10.648C66.5468 10.808 66.1841 10.9413 65.7361 11.048C65.2988 11.1653 64.8028 11.224 64.2481 11.224C63.2135 11.224 62.4028 11.0267 61.8161 10.632C61.2401 10.2267 60.9521 9.63467 60.9521 8.856C60.9521 8.152 61.1815 7.61333 61.6401 7.24C62.0988 6.856 62.7495 6.62667 63.5921 6.552L65.8321 6.328V5.96C65.8321 5.48 65.6775 5.13333 65.3681 4.92C65.0588 4.70667 64.6375 4.6 64.1041 4.6C63.6775 4.6 63.2615 4.65867 62.8561 4.776C62.4615 4.89333 62.1095 5.02667 61.8001 5.176C61.7041 5.09067 61.6188 4.98933 61.5441 4.872C61.4695 4.744 61.4321 4.61067 61.4321 4.472C61.4321 4.14133 61.6135 3.89067 61.9761 3.72C62.2748 3.58133 62.6161 3.47467 63.0001 3.4C63.3948 3.32533 63.7948 3.288 64.2001 3.288ZM73.2524 4.632C72.5804 4.632 72.015 4.86133 71.5564 5.32C71.0977 5.768 70.8684 6.41867 70.8684 7.272C70.8684 8.11467 71.087 8.76 71.5244 9.208C71.9724 9.656 72.5484 9.88 73.2524 9.88C73.6684 9.88 74.0204 9.82667 74.3084 9.72C74.5964 9.60267 74.847 9.47467 75.0604 9.336C75.199 9.42133 75.311 9.52267 75.3964 9.64C75.4817 9.75733 75.5244 9.896 75.5244 10.056C75.5244 10.3867 75.3057 10.664 74.8684 10.888C74.431 11.1013 73.8657 11.208 73.1724 11.208C72.3937 11.208 71.7057 11.064 71.1084 10.776C70.511 10.488 70.0417 10.0507 69.7004 9.464C69.3697 8.87733 69.2044 8.14667 69.2044 7.272C69.2044 6.38667 69.3804 5.65067 69.7324 5.064C70.0844 4.47733 70.559 4.03467 71.1564 3.736C71.7537 3.43733 72.4097 3.288 73.1244 3.288C73.807 3.288 74.3617 3.41067 74.7884 3.656C75.2257 3.89067 75.4444 4.168 75.4444 4.488C75.4444 4.63733 75.4017 4.77067 75.3164 4.888C75.2417 5.00533 75.1457 5.10133 75.0284 5.176C74.8044 5.02667 74.5537 4.89867 74.2764 4.792C73.999 4.68533 73.6577 4.632 73.2524 4.632ZM77.1955 1.224C77.1955 0.946666 77.2915 0.717333 77.4835 0.535999C77.6755 0.354666 77.9102 0.264 78.1875 0.264C78.4862 0.264 78.7262 0.354666 78.9075 0.535999C79.0888 0.717333 79.1795 0.946666 79.1795 1.224C79.1795 1.49067 79.0888 1.72 78.9075 1.912C78.7262 2.09333 78.4862 2.184 78.1875 2.184C77.9102 2.184 77.6755 2.09333 77.4835 1.912C77.2915 1.72 77.1955 1.49067 77.1955 1.224ZM77.3715 6.776H79.0195V10.968C78.9448 10.9893 78.8382 11.016 78.6995 11.048C78.5715 11.08 78.4275 11.096 78.2675 11.096C77.9688 11.096 77.7448 11.0373 77.5955 10.92C77.4462 10.8027 77.3715 10.6107 77.3715 10.344V6.776ZM79.0195 7.592H77.3715V3.56C77.4462 3.53867 77.5528 3.51733 77.6915 3.496C77.8302 3.464 77.9795 3.448 78.1395 3.448C78.4382 3.448 78.6568 3.50667 78.7955 3.624C78.9448 3.73067 79.0195 3.92267 79.0195 4.2V7.592ZM88.4751 7.256C88.4751 8.056 88.3205 8.75467 88.0111 9.352C87.7018 9.94933 87.2645 10.4133 86.6991 10.744C86.1338 11.064 85.4671 11.224 84.6991 11.224C83.9311 11.224 83.2645 11.064 82.6991 10.744C82.1338 10.4133 81.6965 9.95467 81.3871 9.368C81.0778 8.77067 80.9231 8.06667 80.9231 7.256C80.9231 6.44533 81.0778 5.74667 81.3871 5.16C81.7071 4.56267 82.1498 4.104 82.7151 3.784C83.2911 3.45333 83.9525 3.288 84.6991 3.288C85.4565 3.288 86.1178 3.45333 86.6831 3.784C87.2485 4.104 87.6858 4.56267 87.9951 5.16C88.3151 5.74667 88.4751 6.44533 88.4751 7.256ZM84.6991 4.616C84.0591 4.616 83.5471 4.85067 83.1631 5.32C82.7898 5.78933 82.6031 6.43467 82.6031 7.256C82.6031 8.088 82.7845 8.73867 83.1471 9.208C83.5205 9.66667 84.0378 9.896 84.6991 9.896C85.3605 9.896 85.8725 9.66133 86.2351 9.192C86.6085 8.72267 86.7951 8.07733 86.7951 7.256C86.7951 6.43467 86.6085 5.78933 86.2351 5.32C85.8618 4.85067 85.3498 4.616 84.6991 4.616ZM96.9959 6.088V7.672H95.3479V6.152C95.3479 5.61867 95.1985 5.22933 94.8999 4.984C94.6012 4.73867 94.2012 4.616 93.6999 4.616C93.3265 4.616 92.9905 4.664 92.6919 4.76C92.3932 4.856 92.1372 4.96267 91.9239 5.08V7.672H90.2759V5.048C90.2759 4.80267 90.3239 4.60533 90.4199 4.456C90.5265 4.296 90.6919 4.14667 90.9159 4.008C91.2145 3.82667 91.6039 3.66133 92.0839 3.512C92.5639 3.36267 93.1025 3.288 93.6999 3.288C94.7345 3.288 95.5399 3.52267 96.1159 3.992C96.7025 4.45067 96.9959 5.14933 96.9959 6.088ZM90.2759 6.84H91.9239V10.968C91.8492 10.9893 91.7425 11.016 91.6039 11.048C91.4759 11.08 91.3319 11.096 91.1719 11.096C90.8732 11.096 90.6492 11.0373 90.4999 10.92C90.3505 10.8027 90.2759 10.6107 90.2759 10.344V6.84ZM95.3479 6.84H96.9959V10.968C96.9212 10.9893 96.8145 11.016 96.6759 11.048C96.5372 11.08 96.3932 11.096 96.2439 11.096C95.9345 11.096 95.7052 11.0373 95.5559 10.92C95.4172 10.8027 95.3479 10.6107 95.3479 10.344V6.84ZM99.8858 8.168L99.8058 6.968L104.35 6.328C104.318 5.82667 104.142 5.41067 103.822 5.08C103.502 4.73867 103.048 4.568 102.462 4.568C101.864 4.568 101.368 4.78133 100.974 5.208C100.579 5.63467 100.376 6.24267 100.366 7.032L100.398 7.64C100.483 8.39733 100.755 8.968 101.214 9.352C101.672 9.72533 102.275 9.912 103.022 9.912C103.47 9.912 103.88 9.84267 104.254 9.704C104.627 9.56533 104.926 9.416 105.15 9.256C105.278 9.33067 105.379 9.432 105.454 9.56C105.539 9.688 105.582 9.82667 105.582 9.976C105.582 10.2107 105.464 10.424 105.23 10.616C104.995 10.808 104.675 10.9573 104.27 11.064C103.875 11.1707 103.427 11.224 102.926 11.224C102.104 11.224 101.384 11.0747 100.766 10.776C100.147 10.4667 99.6671 10.0133 99.3258 9.416C98.9844 8.808 98.8138 8.06667 98.8138 7.192C98.8138 6.56267 98.9044 6.008 99.0858 5.528C99.2778 5.03733 99.5391 4.62667 99.8698 4.296C100.2 3.96533 100.59 3.71467 101.038 3.544C101.486 3.37333 101.966 3.288 102.478 3.288C103.15 3.288 103.742 3.432 104.254 3.72C104.776 3.99733 105.182 4.38667 105.47 4.888C105.758 5.38933 105.902 5.96 105.902 6.6C105.902 6.86667 105.838 7.064 105.71 7.192C105.582 7.30933 105.4 7.384 105.166 7.416L99.8858 8.168ZM113.25 8.936C113.25 9.65067 112.983 10.2107 112.45 10.616C111.927 11.0213 111.164 11.224 110.162 11.224C109.33 11.224 108.647 11.096 108.114 10.84C107.58 10.584 107.314 10.2747 107.314 9.912C107.314 9.752 107.351 9.608 107.426 9.48C107.511 9.34133 107.623 9.22933 107.762 9.144C108.06 9.336 108.402 9.512 108.786 9.672C109.18 9.832 109.623 9.912 110.114 9.912C111.116 9.912 111.618 9.592 111.618 8.952C111.618 8.67467 111.532 8.456 111.362 8.296C111.191 8.12533 110.935 7.99733 110.594 7.912L109.474 7.624C108.759 7.464 108.231 7.208 107.89 6.856C107.548 6.504 107.378 6.05067 107.378 5.496C107.378 4.87733 107.628 4.35467 108.13 3.928C108.642 3.50133 109.383 3.288 110.354 3.288C110.855 3.288 111.298 3.34133 111.682 3.448C112.076 3.544 112.38 3.68267 112.594 3.864C112.818 4.04533 112.93 4.248 112.93 4.472C112.93 4.632 112.892 4.776 112.818 4.904C112.743 5.032 112.647 5.128 112.53 5.192C112.402 5.11733 112.231 5.032 112.018 4.936C111.804 4.84 111.559 4.76 111.282 4.696C111.015 4.632 110.738 4.6 110.45 4.6C110.002 4.6 109.644 4.68 109.378 4.84C109.122 4.98933 108.994 5.208 108.994 5.496C108.994 5.69867 109.068 5.88 109.218 6.04C109.367 6.18933 109.618 6.30133 109.97 6.376L110.914 6.616C111.714 6.79733 112.3 7.08 112.674 7.464C113.058 7.83733 113.25 8.328 113.25 8.936Z" fill="#2F2F2F"/>
</svg>
