<svg width="31" height="31" viewBox="0 0 31 31" fill="none" xmlns="http://www.w3.org/2000/svg">
<path d="M28.015 2.60535H3.985C3.59115 2.60535 3.21344 2.75601 2.93495 3.02418C2.65646 3.29236 2.5 3.65609 2.5 4.03535V27.1753C2.5 27.5546 2.65646 27.9183 2.93495 28.1865C3.21344 28.4547 3.59115 28.6053 3.985 28.6053H16.918V18.5303H13.408V14.6303H16.918V11.7053C16.8453 11.0186 16.9295 10.3249 17.1647 9.67284C17.3999 9.02078 17.7803 8.42616 18.2794 7.93068C18.7785 7.43521 19.3841 7.05088 20.0538 6.80466C20.7235 6.55843 21.441 6.45627 22.156 6.50535C23.2067 6.49912 24.257 6.55121 25.3015 6.66135V10.1713H23.155C21.454 10.1713 21.13 10.9513 21.13 12.0823V14.5913H25.18L24.6535 18.4913H21.13V28.6053H28.015C28.21 28.6053 28.4031 28.5684 28.5833 28.4965C28.7635 28.4246 28.9272 28.3193 29.0651 28.1865C29.2029 28.0537 29.3123 27.8961 29.387 27.7226C29.4616 27.5491 29.5 27.3631 29.5 27.1753V4.03535C29.5 3.84756 29.4616 3.66161 29.387 3.48811C29.3123 3.31461 29.2029 3.15697 29.0651 3.02418C28.9272 2.8914 28.7635 2.78606 28.5833 2.7142C28.4031 2.64233 28.21 2.60535 28.015 2.60535Z" fill="#2F2F2F"/>
</svg>
