<svg width="36" height="31" viewBox="0 0 36 31" fill="none" xmlns="http://www.w3.org/2000/svg">
<path d="M20.5881 0.00600963C11.8101 -0.235055 4.61864 6.80747 4.61864 15.503H1.53167C0.755622 15.503 0.376219 16.4328 0.928078 16.9666L5.7396 21.7879C6.08451 22.1323 6.61913 22.1323 6.96404 21.7879L11.7756 16.9666C12.3102 16.4328 11.9308 15.503 11.1547 15.503H8.06776C8.06776 8.78764 13.5519 3.36369 20.3121 3.44979C26.7275 3.53588 32.1254 8.92539 32.2116 15.3308C32.2978 22.0634 26.8655 27.5562 20.1397 27.5562C17.3631 27.5562 14.7935 26.6092 12.7586 25.0078C12.0687 24.474 11.103 24.5257 10.4821 25.1456C9.75783 25.8688 9.80957 27.0913 10.6201 27.7112C13.2414 29.7775 16.5354 31 20.1397 31C28.8487 31 35.9022 23.8197 35.6607 15.0553C35.4365 6.97966 28.6763 0.229855 20.5881 0.00600963ZM19.7085 8.61545C19.0015 8.61545 18.4151 9.20089 18.4151 9.90687V16.2434C18.4151 16.8461 18.7428 17.4143 19.2602 17.7242L24.6408 20.9097C25.2616 21.2713 26.0549 21.0647 26.4171 20.462C26.7792 19.8422 26.5723 19.0501 25.9687 18.6885L21.002 15.7441V9.88965C21.002 9.20089 20.4156 8.61545 19.7085 8.61545Z" fill="#149ED7"/>
</svg>
