<svg width="35" height="32" viewBox="0 0 35 32" fill="none" xmlns="http://www.w3.org/2000/svg">
<path d="M6.44737 11.4369V28.0415C6.44737 28.4819 6.61372 28.9043 6.90983 29.2157C7.20594 29.5271 7.60755 29.702 8.02632 29.702H14.3421M6.44737 11.4369L16.4737 2.40064C16.7597 2.14338 17.1237 2.00201 17.5 2.00201C17.8763 2.00201 18.2403 2.14338 18.5263 2.40064L28.5526 11.4369M6.44737 11.4369L2.5 14.7578M14.3421 29.702V21.3997C14.3421 20.9593 14.5085 20.537 14.8046 20.2256C15.1007 19.9142 15.5023 19.7392 15.9211 19.7392H19.0789C19.4977 19.7392 19.8993 19.9142 20.1954 20.2256C20.4915 20.537 20.6579 20.9593 20.6579 21.3997V29.702M14.3421 29.702H20.6579M28.5526 11.4369V28.0415C28.5526 28.4819 28.3863 28.9043 28.0902 29.2157C27.7941 29.5271 27.3924 29.702 26.9737 29.702H20.6579M28.5526 11.4369L32.5 14.7578" stroke="#1D3D8F" stroke-width="3.2774" stroke-linecap="round" stroke-linejoin="round"/>
</svg>
