<svg width="74" height="16" viewBox="0 0 74 16" fill="none" xmlns="http://www.w3.org/2000/svg">
<g id="Group 46">
<g id="wifi">
<mask id="mask0_691_2462" style="mask-type:alpha" maskUnits="userSpaceOnUse" x="29" y="0" width="17" height="16">
<rect id="Bounding box" x="29.4219" y="0.800049" width="16.0482" height="14.4" fill="#D9D9D9"/>
</mask>
<g mask="url(#mask0_691_2462)">
<path id="wifi_2" d="M33.668 11.4835L32.2637 10.0763C32.9213 9.43263 33.693 8.92263 34.579 8.54626C35.465 8.1699 36.4207 7.98172 37.446 7.98172C38.4713 7.98172 39.4269 8.17263 40.3129 8.55444C41.1989 8.93626 41.9707 9.45444 42.6282 10.109L41.224 11.4835C40.7336 11.0035 40.1652 10.6272 39.5189 10.3544C38.8725 10.0817 38.1815 9.94535 37.446 9.94535C36.7104 9.94535 36.0195 10.0817 35.3731 10.3544C34.7267 10.6272 34.1583 11.0035 33.668 11.4835ZM30.8261 8.70172L29.4219 7.32717C30.4472 6.30172 31.6452 5.4999 33.016 4.92172C34.3868 4.34353 35.8634 4.05444 37.446 4.05444C39.0285 4.05444 40.5052 4.34353 41.8759 4.92172C43.2467 5.4999 44.4448 6.30172 45.4701 7.32717L44.0658 8.70172C43.2077 7.86172 42.2131 7.20444 41.0819 6.7299C39.9507 6.25535 38.7387 6.01808 37.446 6.01808C36.1532 6.01808 34.9412 6.25535 33.8101 6.7299C32.6789 7.20444 31.6842 7.86172 30.8261 8.70172ZM37.446 15.1817L39.803 12.8581C39.5021 12.5635 39.1511 12.3317 38.7499 12.1626C38.3487 11.9935 37.914 11.909 37.446 11.909C36.9779 11.909 36.5433 11.9935 36.1421 12.1626C35.7408 12.3317 35.3898 12.5635 35.0889 12.8581L37.446 15.1817Z" fill="#2F2F2F"/>
</g>
</g>
<g id="badge_critical_battery">
<mask id="mask1_691_2462" style="mask-type:alpha" maskUnits="userSpaceOnUse" x="56" y="0" width="18" height="16">
<rect id="Bounding box_2" x="56.1685" width="17.8313" height="16" fill="#D9D9D9"/>
</mask>
<g mask="url(#mask1_691_2462)">
<path id="badge_critical_battery_2" d="M59.8832 12.927C59.6727 12.927 59.4962 12.8573 59.3538 12.7179C59.2114 12.5785 59.1402 12.4058 59.1402 12.1998V10.7452H57.6543V7.83611H59.1402V6.38157C59.1402 6.17551 59.2114 6.00278 59.3538 5.86339C59.4962 5.72399 59.6727 5.6543 59.8832 5.6543H71.7708C71.9813 5.6543 72.1577 5.72399 72.3001 5.86339C72.4425 6.00278 72.5137 6.17551 72.5137 6.38157V12.1998C72.5137 12.4058 72.4425 12.5785 72.3001 12.7179C72.1577 12.8573 71.9813 12.927 71.7708 12.927H59.8832ZM60.6262 11.4725H70.2848V7.10884H60.6262V11.4725Z" fill="#2F2F2F"/>
</g>
</g>
<g id="signal_cellular_alt">
<mask id="mask2_691_2462" style="mask-type:alpha" maskUnits="userSpaceOnUse" x="0" y="0" width="17" height="16">
<rect id="Bounding box_3" y="0.800049" width="16.0482" height="14.4" fill="#D9D9D9"/>
</mask>
<g mask="url(#mask2_691_2462)">
<path id="signal_cellular_alt_2" d="M3.34326 14.5272V10.5999H5.34929V14.5272H3.34326ZM7.35531 14.5272V7.32717H9.36133V14.5272H7.35531ZM11.3674 14.5272V4.05444H13.3734V14.5272H11.3674Z" fill="#2F2F2F"/>
</g>
</g>
</g>
</svg>
