<svg width="31" height="31" viewBox="0 0 31 31" fill="none" xmlns="http://www.w3.org/2000/svg">
<path d="M22.6422 8.41396C22.5001 8.41396 22.3638 8.35752 22.2634 8.25705C22.1629 8.15658 22.1064 8.02032 22.1064 7.87824C22.1064 7.73616 22.1629 7.5999 22.2634 7.49944C22.3638 7.39897 22.5001 7.34253 22.6422 7.34253M22.6422 8.41396C22.7842 8.41396 22.9205 8.35752 23.021 8.25705C23.1214 8.15658 23.1779 8.02032 23.1779 7.87824C23.1779 7.73616 23.1214 7.5999 23.021 7.49944C22.9205 7.39897 22.7842 7.34253 22.6422 7.34253" stroke="#2F2F2F" stroke-width="2" stroke-linecap="round" stroke-linejoin="round"/>
<path d="M2.33857 7.95754C2.33857 6.49525 2.91946 5.09285 3.95346 4.05886C4.98745 3.02486 6.38985 2.44397 7.85214 2.44397H22.5564C23.2805 2.44397 23.9974 2.58658 24.6664 2.86367C25.3353 3.14075 25.9431 3.54687 26.4551 4.05886C26.9671 4.57084 27.3732 5.17865 27.6503 5.84759C27.9274 6.51653 28.07 7.23349 28.07 7.95754V22.6618C28.07 24.1241 27.4891 25.5265 26.4551 26.5605C25.4211 27.5945 24.0187 28.1754 22.5564 28.1754H7.85C6.38771 28.1754 4.98531 27.5945 3.95131 26.5605C2.91732 25.5265 2.33643 24.1241 2.33643 22.6618V7.9554L2.33857 7.95754Z" stroke="#2F2F2F" stroke-width="2" stroke-linecap="round" stroke-linejoin="round"/>
<path d="M9.73999 15.3097C9.73999 16.0273 9.88133 16.7379 10.1559 17.4008C10.4305 18.0638 10.833 18.6662 11.3404 19.1736C11.8478 19.681 12.4502 20.0835 13.1132 20.3581C13.7761 20.6327 14.4867 20.774 15.2043 20.774C15.9219 20.774 16.6324 20.6327 17.2954 20.3581C17.9583 20.0835 18.5607 19.681 19.0681 19.1736C19.5755 18.6662 19.978 18.0638 20.2526 17.4008C20.5272 16.7379 20.6686 16.0273 20.6686 15.3097C20.6686 13.8605 20.0929 12.4707 19.0681 11.4459C18.0434 10.4212 16.6535 9.84546 15.2043 9.84546C13.7551 9.84546 12.3652 10.4212 11.3404 11.4459C10.3157 12.4707 9.73999 13.8605 9.73999 15.3097Z" stroke="#2F2F2F" stroke-width="2" stroke-linecap="round" stroke-linejoin="round"/>
</svg>