<svg width="16" height="16" viewBox="0 0 16 16" fill="none" xmlns="http://www.w3.org/2000/svg">
<g id="&#240;&#159;&#166;&#134; icon &#34;Alternate Star Half&#34;">
<path id="Vector" d="M15.1806 5.47792L10.8114 4.84181L8.85884 0.889912C8.68332 0.536782 8.34093 0.358276 7.99855 0.358276C7.65825 0.358276 7.31826 0.534394 7.14214 0.889912L5.18903 4.84151L0.819526 5.47702C0.0359534 5.59046 -0.278073 6.55432 0.28998 7.10656L3.45084 10.1811L2.70279 14.5238C2.59652 15.1441 3.09174 15.6417 3.64636 15.6417C3.79352 15.6417 3.94486 15.6068 4.09023 15.5297L7.99914 13.4796L11.9078 15.5303C12.0528 15.6065 12.2039 15.6411 12.3504 15.6411C12.9057 15.6411 13.4018 15.1453 13.2955 14.5247L12.5483 10.1817L15.7098 7.10775C16.2782 6.55552 15.9641 5.59135 15.1806 5.47792ZM11.5466 9.15549L11.0057 9.68145L11.1334 10.4241L11.7161 13.8107L8.66749 12.211L7.99944 11.8605L8.00034 2.39228L9.52361 5.47553L9.85733 6.15105L10.6039 6.2597L14.0137 6.75611L11.5466 9.15549Z" fill="#1D3D8F"/>
</g>
</svg>
