<svg width="111" height="58" viewBox="0 0 111 58" fill="none" xmlns="http://www.w3.org/2000/svg">
<g clip-path="url(#clip0_1120_3000)">
<path d="M43.7128 11.1964V27.3815C43.7128 27.8107 43.8833 28.2224 44.1868 28.526C44.4903 28.8295 44.902 29 45.3313 29H51.8053M43.7128 11.1964L53.9903 2.38855C54.2834 2.13779 54.6565 2 55.0423 2C55.4281 2 55.8012 2.13779 56.0943 2.38855L66.3718 11.1964M43.7128 11.1964L39.6665 14.4335M51.8053 29V20.9075C51.8053 20.4782 51.9758 20.0665 52.2793 19.763C52.5829 19.4595 52.9945 19.289 53.4238 19.289H56.6608C57.0901 19.289 57.5017 19.4595 57.8053 19.763C58.1088 20.0665 58.2793 20.4782 58.2793 20.9075V29M51.8053 29H58.2793M66.3718 11.1964V27.3815C66.3718 27.8107 66.2013 28.2224 65.8978 28.526C65.5943 28.8295 65.1826 29 64.7533 29H58.2793M66.3718 11.1964L70.4181 14.4335" stroke="#1D3D8F" stroke-width="3" stroke-linecap="round" stroke-linejoin="round"/>
<path d="M31.6706 38.1797H34.1549V54H31.6706V38.1797ZM47.1862 52.3828L47.2799 54.1641C46.9049 54.2422 46.569 54.2812 46.2721 54.2812C44.6784 54.2656 43.8659 53.375 43.8346 51.6094V46.2891C43.8346 45.9766 43.8034 45.6875 43.7409 45.4219C43.5221 44.4219 42.9831 43.9219 42.1237 43.9219C41.7956 43.9219 41.4753 44.0078 41.1628 44.1797C40.1784 44.7422 39.6862 45.9453 39.6862 47.7891V54H37.2487V42.2812H39.5924L39.6393 43.8984C40.4049 42.6328 41.4753 41.9922 42.8503 41.9766C43.4128 41.9766 43.9284 42.0859 44.3971 42.3047C45.6471 42.9141 46.2721 44.1562 46.2721 46.0312V51.4453C46.2721 51.5703 46.2799 51.6875 46.2956 51.7969C46.3581 52.2656 46.6549 52.4609 47.1862 52.3828ZM51.8503 54H49.4128V42.2812H51.8503V54ZM52.2253 38.8594C52.2253 39.1406 52.1784 39.4062 52.0846 39.6562C51.819 40.2812 51.3346 40.5938 50.6315 40.5938C50.444 40.5938 50.2565 40.5625 50.069 40.5C49.4128 40.25 49.0846 39.7031 49.0846 38.8594C49.0846 38.6094 49.1315 38.3672 49.2253 38.1328C49.4753 37.5078 49.9518 37.1953 50.6549 37.1953C50.8424 37.1953 51.0378 37.2266 51.2409 37.2891C51.8971 37.5391 52.2253 38.0625 52.2253 38.8594ZM62.7487 53.1094C61.3893 53.8906 60.1003 54.2891 58.8815 54.3047C57.9909 54.3047 57.194 54.1016 56.4909 53.6953C54.8815 52.7422 54.0768 50.875 54.0768 48.0938C54.0768 46.5938 54.3737 45.3281 54.9674 44.2969C55.8424 42.7656 57.1706 42 58.9518 42C60.9206 42 62.2565 43.0078 62.9596 45.0234L60.9674 45.7969C60.9518 45.7344 60.9284 45.6719 60.8971 45.6094C60.4284 44.5312 59.7799 43.9922 58.9518 43.9922C58.8112 43.9922 58.6706 44.0078 58.5299 44.0391C57.2331 44.2891 56.5846 45.6562 56.5846 48.1406C56.6159 50.7812 57.5612 52.1484 59.4206 52.2422C60.1706 52.2422 61.0534 51.9766 62.069 51.4453L62.7487 53.1094ZM66.9675 54H64.53V42.2812H66.9675V54ZM67.3425 38.8594C67.3425 39.1406 67.2956 39.4062 67.2018 39.6562C66.9362 40.2812 66.4518 40.5938 65.7487 40.5938C65.5612 40.5938 65.3737 40.5625 65.1862 40.5C64.53 40.25 64.2018 39.7031 64.2018 38.8594C64.2018 38.6094 64.2487 38.3672 64.3425 38.1328C64.5925 37.5078 65.069 37.1953 65.7721 37.1953C65.9596 37.1953 66.155 37.2266 66.3581 37.2891C67.0143 37.5391 67.3425 38.0625 67.3425 38.8594ZM74.3971 52.3125C74.7565 52.3125 75.0925 52.2422 75.405 52.1016C76.4987 51.5703 77.0456 50.2656 77.0456 48.1875C77.0456 47.4688 76.9753 46.8281 76.8346 46.2656C76.4596 44.7344 75.6628 43.9688 74.444 43.9688C74.0534 43.9688 73.6862 44.0625 73.3425 44.25C72.2956 44.8281 71.7721 46.125 71.7721 48.1406C71.7721 48.8906 71.8503 49.5625 72.0065 50.1562C72.4128 51.5938 73.2096 52.3125 74.3971 52.3125ZM74.4909 41.9766C75.4909 41.9766 76.3659 42.1953 77.1159 42.6328C78.7253 43.6016 79.53 45.4375 79.53 48.1406C79.53 49.4688 79.3034 50.6172 78.8503 51.5859C77.9753 53.3984 76.4596 54.3047 74.3034 54.3047C73.2565 54.3047 72.3503 54.0625 71.5846 53.5781C70.0378 52.5781 69.2643 50.7812 69.2643 48.1875C69.2643 46.7656 69.5378 45.5391 70.0846 44.5078C71.0065 42.8203 72.4753 41.9766 74.4909 41.9766Z" fill="#1D3D8F"/>
</g>
<defs>
<clipPath id="clip0_1120_3000">
<rect width="110.333" height="58" fill="white"/>
</clipPath>
</defs>
</svg>
