<svg width="31" height="31" viewBox="0 0 31 31" fill="none" xmlns="http://www.w3.org/2000/svg">
<path d="M15.5 4.60547C14.9033 4.60547 14.331 4.84252 13.909 5.26448C13.4871 5.68644 13.25 6.25873 13.25 6.85547C13.25 7.45221 13.4871 8.0245 13.909 8.44646C14.331 8.86842 14.9033 9.10547 15.5 9.10547C16.0967 9.10547 16.669 8.86842 17.091 8.44646C17.5129 8.0245 17.75 7.45221 17.75 6.85547C17.75 6.25873 17.5129 5.68644 17.091 5.26448C16.669 4.84252 16.0967 4.60547 15.5 4.60547ZM11.75 6.85547C11.75 5.86091 12.1451 4.90708 12.8483 4.20382C13.5516 3.50056 14.5054 3.10547 15.5 3.10547C16.4946 3.10547 17.4484 3.50056 18.1517 4.20382C18.8549 4.90708 19.25 5.86091 19.25 6.85547C19.25 7.85003 18.8549 8.80386 18.1517 9.50712C17.4484 10.2104 16.4946 10.6055 15.5 10.6055C14.5054 10.6055 13.5516 10.2104 12.8483 9.50712C12.1451 8.80386 11.75 7.85003 11.75 6.85547ZM23.75 6.10547C23.3522 6.10547 22.9706 6.2635 22.6893 6.54481C22.408 6.82611 22.25 7.20764 22.25 7.60547C22.25 8.00329 22.408 8.38482 22.6893 8.66613C22.9706 8.94743 23.3522 9.10547 23.75 9.10547C24.1478 9.10547 24.5294 8.94743 24.8107 8.66613C25.092 8.38482 25.25 8.00329 25.25 7.60547C25.25 7.20764 25.092 6.82611 24.8107 6.54481C24.5294 6.2635 24.1478 6.10547 23.75 6.10547ZM20.75 7.60547C20.75 6.80982 21.0661 6.04676 21.6287 5.48415C22.1913 4.92154 22.9544 4.60547 23.75 4.60547C24.5456 4.60547 25.3087 4.92154 25.8713 5.48415C26.4339 6.04676 26.75 6.80982 26.75 7.60547C26.75 8.40112 26.4339 9.16418 25.8713 9.72679C25.3087 10.2894 24.5456 10.6055 23.75 10.6055C22.9544 10.6055 22.1913 10.2894 21.6287 9.72679C21.0661 9.16418 20.75 8.40112 20.75 7.60547ZM5.75 7.60547C5.75 7.20764 5.90804 6.82611 6.18934 6.54481C6.47064 6.2635 6.85218 6.10547 7.25 6.10547C7.64782 6.10547 8.02936 6.2635 8.31066 6.54481C8.59196 6.82611 8.75 7.20764 8.75 7.60547C8.75 8.00329 8.59196 8.38482 8.31066 8.66613C8.02936 8.94743 7.64782 9.10547 7.25 9.10547C6.85218 9.10547 6.47064 8.94743 6.18934 8.66613C5.90804 8.38482 5.75 8.00329 5.75 7.60547ZM7.25 4.60547C6.45435 4.60547 5.69129 4.92154 5.12868 5.48415C4.56607 6.04676 4.25 6.80982 4.25 7.60547C4.25 8.40112 4.56607 9.16418 5.12868 9.72679C5.69129 10.2894 6.45435 10.6055 7.25 10.6055C8.04565 10.6055 8.80871 10.2894 9.37132 9.72679C9.93393 9.16418 10.25 8.40112 10.25 7.60547C10.25 6.80982 9.93393 6.04676 9.37132 5.48415C8.80871 4.92154 8.04565 4.60547 7.25 4.60547ZM8.15 22.6025C7.74385 22.6228 7.3378 22.5603 6.95654 22.4189C6.57527 22.2775 6.22674 22.06 5.93212 21.7797C5.6375 21.4994 5.40295 21.1621 5.24271 20.7883C5.08247 20.4146 4.9999 20.0121 5 19.6055V13.9805C5 13.881 5.03951 13.7856 5.10984 13.7153C5.18016 13.645 5.27554 13.6055 5.375 13.6055H8.021C8.081 13.055 8.276 12.5435 8.5685 12.1055H5.375C4.34 12.1055 3.5 12.9455 3.5 13.9805V19.6055C3.49993 20.2476 3.63731 20.8824 3.9029 21.4671C4.1685 22.0518 4.55616 22.5728 5.03983 22.9953C5.52351 23.4177 6.092 23.7317 6.7071 23.9162C7.3222 24.1007 7.96967 24.1514 8.606 24.065C8.40411 23.5944 8.2513 23.1044 8.15 22.6025ZM22.394 24.065C23.0303 24.1514 23.6778 24.1007 24.2929 23.9162C24.908 23.7317 25.4765 23.4177 25.9602 22.9953C26.4438 22.5728 26.8315 22.0518 27.0971 21.4671C27.3627 20.8824 27.5001 20.2476 27.5 19.6055V13.9805C27.5 12.9455 26.66 12.1055 25.625 12.1055H22.4315C22.7255 12.5435 22.919 13.055 22.979 13.6055H25.625C25.7245 13.6055 25.8198 13.645 25.8902 13.7153C25.9605 13.7856 26 13.881 26 13.9805V19.6055C26.0001 20.0121 25.9175 20.4146 25.7573 20.7883C25.597 21.1621 25.3625 21.4994 25.0679 21.7797C24.7733 22.06 24.4247 22.2775 24.0435 22.4189C23.6622 22.5603 23.2561 22.6228 22.85 22.6025C22.7487 23.1043 22.5959 23.5944 22.394 24.065ZM11.375 12.1055C10.34 12.1055 9.5 12.9455 9.5 13.9805V21.1055C9.5 22.6968 10.1321 24.2229 11.2574 25.3481C12.3826 26.4733 13.9087 27.1055 15.5 27.1055C17.0913 27.1055 18.6174 26.4733 19.7426 25.3481C20.8679 24.2229 21.5 22.6968 21.5 21.1055V13.9805C21.5 12.9455 20.66 12.1055 19.625 12.1055H11.375ZM11 13.9805C11 13.881 11.0395 13.7856 11.1098 13.7153C11.1802 13.645 11.2755 13.6055 11.375 13.6055H19.625C19.7245 13.6055 19.8198 13.645 19.8902 13.7153C19.9605 13.7856 20 13.881 20 13.9805V21.1055C20 22.2989 19.5259 23.4435 18.682 24.2874C17.8381 25.1314 16.6935 25.6055 15.5 25.6055C14.3065 25.6055 13.1619 25.1314 12.318 24.2874C11.4741 23.4435 11 22.2989 11 21.1055V13.9805Z" fill="black"/>
</svg>
