<svg width="29" height="30" viewBox="0 0 29 30" fill="none" xmlns="http://www.w3.org/2000/svg">
<g clip-path="url(#clip0_536_1041)">
<path fill-rule="evenodd" clip-rule="evenodd" d="M18.2538 19.6337C18.0272 19.868 17.72 19.9997 17.3995 19.9997C17.0791 19.9997 16.7718 19.868 16.5453 19.6337L9.70971 12.5624C9.5943 12.4471 9.50225 12.3092 9.43892 12.1567C9.37559 12.0042 9.34226 11.8402 9.34087 11.6742C9.33947 11.5082 9.37004 11.3436 9.4308 11.19C9.49156 11.0364 9.58128 10.8968 9.69473 10.7794C9.80819 10.6621 9.9431 10.5693 10.0916 10.5064C10.2401 10.4436 10.3992 10.4119 10.5597 10.4134C10.7201 10.4148 10.8787 10.4493 11.0261 10.5148C11.1735 10.5803 11.3068 10.6756 11.4183 10.7949L17.3995 16.9824L23.3808 10.7949C23.6087 10.5672 23.9139 10.4412 24.2307 10.4441C24.5476 10.4469 24.8506 10.5784 25.0747 10.8102C25.2987 11.0419 25.4258 11.3554 25.4285 11.6832C25.4313 12.0109 25.3095 12.3267 25.0894 12.5624L18.2538 19.6337Z" fill="#2F2F2F"/>
</g>
<defs>
<clipPath id="clip0_536_1041">
<rect width="23.2" height="24" fill="white" transform="translate(2.8999)"/>
</clipPath>
</defs>
</svg>
