<svg width="31" height="31" viewBox="0 0 31 31" fill="none" xmlns="http://www.w3.org/2000/svg">
<path d="M14.25 26.3555V23.8555H24.25V14.9805C24.25 12.543 23.4012 10.4755 21.7037 8.77797C20.0062 7.08047 17.9383 6.2313 15.5 6.23047C13.0625 6.23047 10.995 7.07964 9.2975 8.77797C7.6 10.4763 6.75083 12.5438 6.75 14.9805V22.6055H3V15.4492H4.25L4.34375 13.793C4.51042 12.3763 4.92208 11.0638 5.57875 9.85547C6.23542 8.64714 7.05833 7.59505 8.0475 6.69922C9.03667 5.80339 10.1717 5.10547 11.4525 4.60547C12.7333 4.10547 14.0825 3.85547 15.5 3.85547C16.9167 3.85547 18.2604 4.10547 19.5312 4.60547C20.8021 5.10547 21.9375 5.79839 22.9375 6.68422C23.9375 7.56922 24.7604 8.61589 25.4062 9.82422C26.0521 11.0326 26.4687 12.3451 26.6562 13.7617L26.75 15.4492H28V22.6055H26.75V26.3555H14.25ZM11.75 17.6055C11.3958 17.6055 11.0992 17.4855 10.86 17.2455C10.6208 17.0055 10.5008 16.7088 10.5 16.3555C10.5 16.0013 10.62 15.7046 10.86 15.4655C11.1 15.2263 11.3967 15.1063 11.75 15.1055C12.1042 15.1055 12.4013 15.2255 12.6413 15.4655C12.8813 15.7055 13.0008 16.0021 13 16.3555C13 16.7096 12.88 17.0067 12.64 17.2467C12.4 17.4867 12.1033 17.6063 11.75 17.6055ZM19.25 17.6055C18.8958 17.6055 18.5992 17.4855 18.36 17.2455C18.1208 17.0055 18.0008 16.7088 18 16.3555C18 16.0013 18.12 15.7046 18.36 15.4655C18.6 15.2263 18.8967 15.1063 19.25 15.1055C19.6042 15.1055 19.9013 15.2255 20.1413 15.4655C20.3813 15.7055 20.5008 16.0021 20.5 16.3555C20.5 16.7096 20.38 17.0067 20.14 17.2467C19.9 17.4867 19.6033 17.6063 19.25 17.6055ZM8.03125 15.668C7.88542 13.4596 8.55208 11.5638 10.0312 9.98047C11.5104 8.39714 13.3542 7.60547 15.5625 7.60547C17.4167 7.60547 19.0471 8.1938 20.4538 9.37047C21.8604 10.5471 22.7092 12.053 23 13.888C21.1042 13.8663 19.3596 13.3555 17.7662 12.3555C16.1729 11.3555 14.9487 10.0013 14.0938 8.29297C13.7604 9.95964 13.0575 11.4442 11.985 12.7467C10.9125 14.0492 9.59458 15.023 8.03125 15.668Z" fill="black"/>
</svg>
