<svg width="35" height="32" viewBox="0 0 35 32" fill="none" xmlns="http://www.w3.org/2000/svg">
<path d="M20.5 26C26.1568 26 28.9853 26 30.7426 24.2426C32.5 22.4853 32.5 19.6568 32.5 14C32.5 8.34314 32.5 5.51472 30.7426 3.75735C28.9853 2 26.1568 2 20.5 2H14.5C8.84314 2 6.01473 2 4.25736 3.75735C2.5 5.51472 2.5 8.34314 2.5 14C2.5 19.6568 2.5 22.4853 4.25736 24.2426C5.23713 25.2224 6.54984 25.6559 8.5 25.8478" stroke="#149ED7" stroke-width="3.11353" stroke-linecap="round" stroke-linejoin="round"/>
<path d="M20.5001 26.0001C18.6453 26.0001 16.6034 26.7489 14.738 27.7176C11.7419 29.2732 10.2438 30.0511 9.50561 29.5555C8.76738 29.0598 8.90711 27.5227 9.18657 24.4486L9.25008 23.7501" stroke="#149ED7" stroke-width="3.11353" stroke-linecap="round"/>
</svg>
