<svg width="16" height="16" viewBox="0 0 16 16" fill="none" xmlns="http://www.w3.org/2000/svg">
<path id="Vector" d="M12.4455 15.3544C12.3173 15.3549 12.1908 15.3251 12.0767 15.2676L7.98797 13.1607L3.89924 15.2676C3.76647 15.3363 3.61677 15.367 3.46717 15.3561C3.31757 15.3453 3.17407 15.2933 3.05297 15.2062C2.93187 15.1191 2.83804 15.0002 2.78214 14.8632C2.72624 14.7262 2.71052 14.5765 2.73675 14.4312L3.53847 9.98853L0.235407 6.83213C0.132353 6.73091 0.0592477 6.60398 0.0239372 6.46496C-0.0113733 6.32594 -0.00755635 6.18008 0.0349786 6.04303C0.0814458 5.90279 0.166922 5.77818 0.281706 5.68333C0.39649 5.58848 0.535987 5.5272 0.684366 5.50645L5.25413 4.85149L7.26643 0.803415C7.33208 0.670001 7.43458 0.557486 7.56219 0.478759C7.6898 0.400032 7.83737 0.358276 7.98797 0.358276C8.13858 0.358276 8.28614 0.400032 8.41375 0.478759C8.54137 0.557486 8.64387 0.670001 8.70952 0.803415L10.7459 4.8436L15.3156 5.49856C15.464 5.51931 15.6035 5.58059 15.7183 5.67544C15.8331 5.77028 15.9186 5.8949 15.965 6.03514C16.0076 6.17219 16.0114 6.31805 15.9761 6.45707C15.9408 6.59609 15.8676 6.72302 15.7646 6.82424L12.4615 9.98064L13.2632 14.4233C13.2919 14.5712 13.2769 14.7241 13.2201 14.8639C13.1632 15.0038 13.0669 15.1247 12.9426 15.2124C12.7974 15.3125 12.6226 15.3625 12.4455 15.3544Z" fill="#1D3D8F"/>
</svg>
