<svg width="36" height="31" viewBox="0 0 36 31" fill="none" xmlns="http://www.w3.org/2000/svg">
<g id="icon/home">
<path id="Vector" d="M6.71277 11.1964V27.3815C6.71277 27.8107 6.88329 28.2224 7.18681 28.526C7.49034 28.8295 7.90202 29 8.33127 29H14.8053M6.71277 11.1964L16.9903 2.38855C17.2834 2.13779 17.6565 2 18.0423 2C18.4281 2 18.8012 2.13779 19.0943 2.38855L29.3718 11.1964M6.71277 11.1964L2.6665 14.4335M14.8053 29V20.9075C14.8053 20.4782 14.9758 20.0665 15.2793 19.763C15.5829 19.4595 15.9945 19.289 16.4238 19.289H19.6608C20.0901 19.289 20.5017 19.4595 20.8053 19.763C21.1088 20.0665 21.2793 20.4782 21.2793 20.9075V29M14.8053 29H21.2793M29.3718 11.1964V27.3815C29.3718 27.8107 29.2013 28.2224 28.8978 28.526C28.5943 28.8295 28.1826 29 27.7533 29H21.2793M29.3718 11.1964L33.4181 14.4335" stroke="#1D3D8F" stroke-width="3" stroke-linecap="round" stroke-linejoin="round"/>
</g>
</svg>
