<svg width="30" height="34" viewBox="0 0 30 34" fill="none" xmlns="http://www.w3.org/2000/svg">
<g id="Isotipo">
<g id="Group">
<path id="Vector" d="M4.3813 8.7925C3.43597 8.7925 2.5595 8.49356 1.84424 7.98176V7.26807H7.27522L7.42704 7.55918C6.64134 8.32609 5.56454 8.7925 4.38287 8.7925H4.3813Z" fill="#7600FA"/>
<path id="Vector_2" d="M7.09954 15.4974C7.09954 15.5898 7.47986 15.8731 7.5409 15.9341C7.90714 16.2957 8.27651 16.6588 8.64275 17.0203C9.3674 17.7371 10.0921 18.4493 10.8167 19.163C11.0687 19.4118 11.2643 19.7108 11.5022 19.9737C11.5273 19.9987 11.5523 20.0269 11.5742 20.052C11.8653 18.7764 12.4757 17.8858 13.0235 17.1064C13.432 16.5195 14.0675 15.7306 14.9909 14.9293C14.8954 14.8479 14.7984 14.7728 14.7139 14.6977C13.346 13.4409 11.978 12.1888 10.6101 10.932C9.70077 10.0978 8.79144 9.26512 7.8821 8.43091C6.94459 9.2479 5.7191 9.74248 4.37935 9.74248C3.46219 9.74248 2.59668 9.51084 1.84229 9.10235V31.3412C1.84229 32.7921 3.01926 33.969 4.47013 33.969C5.921 33.969 7.09797 32.7921 7.09797 31.3412V15.499L7.09954 15.4974Z" fill="#149ED7"/>
<path id="Vector_3" d="M28.2568 8.83479C27.4038 9.40762 26.3771 9.74412 25.2753 9.74412C24.1092 9.74412 23.0293 9.36849 22.1497 8.73462C20.5157 10.4985 18.8269 12.228 17.2399 14.0341C15.7374 15.7448 13.745 17.2035 12.8857 19.3853C12.7245 19.7954 12.6087 20.2383 12.6682 20.675C12.7292 21.121 12.9718 21.5264 13.2708 21.8644C13.5775 22.2119 13.9578 22.5061 14.4008 22.6439C15.0237 22.838 15.7139 22.7034 16.2993 22.4138C18.3715 21.3918 19.7958 19.2695 21.3437 17.6355C21.6066 17.3585 21.8602 17.0689 22.12 16.7888C22.2593 16.6369 22.9604 16.0704 22.9604 15.8825V31.3225C22.9604 32.7859 24.1468 33.9723 25.6102 33.9723C27.0736 33.9723 28.26 32.7859 28.26 31.3225V8.83479H28.2568Z" fill="#1D3D8F"/>
</g>
<path id="Vector_4" d="M8.76157 4.41032C8.76157 5.64677 8.24977 6.76271 7.42495 7.55779C6.63926 8.3247 5.56245 8.79111 4.38078 8.79111C3.43545 8.79111 2.55898 8.49217 1.84372 7.98037C0.727783 7.18842 0 5.88467 0 4.41032C0 1.99064 1.9611 0.029541 4.38078 0.029541C6.80047 0.029541 8.76157 1.99064 8.76157 4.41032Z" fill="#149ED7"/>
<path id="Vector_5" d="M29.6562 4.41018C29.6562 5.67793 29.1194 6.81891 28.257 7.61555C27.476 8.34647 26.4273 8.79096 25.2754 8.79096C24.2675 8.79096 23.3362 8.44977 22.5975 7.87537C21.5598 7.07559 20.8931 5.81879 20.8931 4.40862C20.8931 1.98893 22.8542 0.027832 25.2739 0.027832C27.6935 0.027832 29.6546 1.98893 29.6546 4.40862L29.6562 4.41018Z" fill="#1D3D8F"/>
</g>
</svg>
