<svg width="111" height="58" viewBox="0 0 111 58" fill="none" xmlns="http://www.w3.org/2000/svg">
<g clip-path="url(#clip0_1120_3008)">
<g opacity="0.5">
<path d="M69.3142 23.6774L68.2463 22.5447L68.2462 22.5448L69.3142 23.6774ZM69.3142 3.7127L68.2462 4.84535L68.2463 4.84539L69.3142 3.7127ZM41.9376 3.7127L40.8696 2.58001L40.8696 2.58002L41.9376 3.7127ZM41.9376 23.6774L43.0056 22.5447L43.0055 22.5447L41.9376 23.6774ZM46.1792 26.7919C47.0353 26.8713 47.7937 26.2416 47.8731 25.3855C47.9525 24.5294 47.3229 23.7711 46.4668 23.6917L46.1792 26.7919ZM52.7708 27.0641L53.4553 28.4623L53.4554 28.4623L52.7708 27.0641ZM47.3624 28.8553L46.5296 30.1706L46.5297 30.1707L47.3624 28.8553ZM47.0326 23.8782L45.483 23.7288L45.483 23.7288L47.0326 23.8782ZM48.6478 23.3468C48.7303 22.491 48.1035 21.7303 47.2477 21.6478C46.3919 21.5653 45.6312 22.1922 45.5487 23.048L48.6478 23.3468ZM58.7269 26.9469C61.6089 26.9469 63.9183 26.9498 65.7279 26.7205C67.5733 26.4865 69.1338 25.9872 70.3822 24.81L68.2462 22.5448C67.6782 23.0803 66.8686 23.4374 65.3363 23.6316C63.7682 23.8304 61.692 23.8334 58.7269 23.8334V26.9469ZM70.3821 24.8101C71.6436 23.6208 72.1907 22.1135 72.4449 20.3312C72.6912 18.6034 72.6875 16.405 72.6875 13.6951H69.574C69.574 16.4982 69.5703 18.4346 69.3625 19.8916C69.1625 21.294 68.8014 22.0214 68.2463 22.5447L70.3821 24.8101ZM72.6875 13.6951C72.6875 10.9851 72.6912 8.78668 72.4449 7.05897C72.1907 5.27661 71.6436 3.76934 70.3822 2.58001L68.2463 4.84539C68.8014 5.36877 69.1625 6.09613 69.3625 7.4985C69.5703 8.95551 69.574 10.8919 69.574 13.6951H72.6875ZM70.3822 2.58005C69.1338 1.40288 67.5733 0.903616 65.7279 0.669683C63.9183 0.440292 61.6089 0.443237 58.7269 0.443237V3.55676C61.692 3.55676 63.7682 3.55971 65.3363 3.75849C66.8686 3.95273 67.6783 4.30982 68.2462 4.84535L70.3822 2.58005ZM58.7269 0.443237H52.525V3.55676H58.7269V0.443237ZM52.525 0.443237C49.6429 0.443237 47.3336 0.440291 45.524 0.669683C43.6785 0.903619 42.1181 1.40289 40.8696 2.58001L43.0055 4.84539C43.5736 4.30981 44.3832 3.95273 45.9155 3.75849C47.4837 3.55971 49.5598 3.55676 52.525 3.55676V0.443237ZM40.8696 2.58002C39.6082 3.76936 39.0611 5.27662 38.807 7.05897C38.5606 8.78669 38.5643 10.9851 38.5643 13.6951H41.6779C41.6779 10.8919 41.6816 8.95551 41.8893 7.4985C42.0893 6.09612 42.4505 5.36876 43.0056 4.84538L40.8696 2.58002ZM38.5643 13.6951C38.5643 16.405 38.5606 18.6034 38.807 20.3312C39.0611 22.1135 39.6082 23.6208 40.8697 24.8101L43.0055 22.5447C42.4505 22.0214 42.0893 21.2941 41.8893 19.8916C41.6816 18.4346 41.6779 16.4982 41.6779 13.6951H38.5643ZM40.8696 24.8101C42.2613 26.1223 44.0427 26.5937 46.1792 26.7919L46.4668 23.6917C44.5717 23.5159 43.6393 23.1423 43.0056 22.5447L40.8696 24.8101ZM58.7269 23.8334C56.4581 23.8334 54.0932 24.6833 52.0863 25.6659L53.4554 28.4623C55.3048 27.5567 57.1613 26.9469 58.7269 26.9469V23.8334ZM52.0863 25.6659C50.5033 26.4409 49.4303 26.9638 48.6558 27.2477C48.2721 27.3882 48.058 27.4327 47.9555 27.4418C47.8677 27.4496 48.0045 27.4194 48.195 27.5399L46.5297 30.1707C47.1018 30.5328 47.7183 30.5889 48.2322 30.543C48.7314 30.4985 49.241 30.3492 49.727 30.1711C50.6918 29.8176 51.9414 29.2034 53.4553 28.4623L52.0863 25.6659ZM48.1952 27.54C48.5477 27.7632 48.3817 28.0517 48.3591 27.2645C48.3394 26.5766 48.4333 25.5715 48.5822 24.0276L45.483 23.7288C45.343 25.1809 45.2202 26.4228 45.2469 27.3536C45.2707 28.1852 45.414 29.4643 46.5296 30.1706L48.1952 27.54ZM48.5822 24.0276L48.6478 23.3468L45.5487 23.048L45.483 23.7288L48.5822 24.0276Z" fill="#149ED7"/>
</g>
<path opacity="0.5" d="M36.7384 52.0547C37.8009 52.0547 39.0041 51.6641 40.3478 50.8828L41.2853 52.6875C39.6134 53.75 37.9806 54.2891 36.3869 54.3047C34.8869 54.3047 33.5978 53.8281 32.5197 52.875C30.8791 51.4062 30.0588 49.1641 30.0588 46.1484C30.0588 43.7266 30.5978 41.7656 31.6759 40.2656C32.8478 38.6719 34.4181 37.875 36.3869 37.875C36.8244 37.875 37.2541 37.9141 37.6759 37.9922C39.6603 38.3984 40.9728 39.6562 41.6134 41.7656L39.1994 42.375C38.6369 40.8594 37.6838 40.0859 36.34 40.0547C35.7775 40.0547 35.2619 40.1953 34.7931 40.4766C33.4025 41.3203 32.7072 43.2031 32.7072 46.125C32.7072 47.3438 32.8634 48.4062 33.1759 49.3125C33.8166 51.1406 35.0041 52.0547 36.7384 52.0547ZM53.2619 52.3828L53.3556 54.1875C53.1681 54.2188 52.9728 54.25 52.7697 54.2812C50.8634 54.4531 49.9103 53.5625 49.9103 51.6094V46.3125C49.9103 45.9844 49.8791 45.6719 49.8166 45.375C49.5666 44.4062 49.0119 43.9219 48.1525 43.9219C47.8244 43.9219 47.5119 44 47.215 44.1562C46.2463 44.7031 45.7619 45.8906 45.7619 47.7188V54H43.3244V37.0078H45.7619L45.7384 43.7109C46.5666 42.5703 47.6291 41.9922 48.9259 41.9766C49.4884 41.9766 50.0041 42.0859 50.4728 42.3047C51.7228 42.9297 52.3478 44.1875 52.3478 46.0781V51.4453C52.3478 51.5859 52.3556 51.7188 52.3713 51.8438C52.4494 52.2656 52.7463 52.4453 53.2619 52.3828ZM63.1525 54.3047C61.9338 54.2891 61.1916 53.7266 60.9259 52.6172C60.8634 52.7109 60.7931 52.8125 60.715 52.9219C60.0275 53.8438 59.09 54.3047 57.9025 54.3047C57.2306 54.3047 56.6134 54.1484 56.0509 53.8359C54.9259 53.2109 54.3634 52.1562 54.3634 50.6719C54.3634 49.9844 54.5431 49.3672 54.9025 48.8203C55.715 47.6016 57.2072 46.9922 59.3791 46.9922C59.5822 46.9922 59.9494 47.0078 60.4806 47.0391V46.0312C60.4181 44.8281 59.7697 44.1641 58.5353 44.0391C57.7228 44.0391 56.7463 44.3594 55.6056 45L54.7619 43.2188C54.7931 43.2031 54.8244 43.1797 54.8556 43.1484C56.1681 42.3828 57.5666 42 59.0509 42C59.6603 42 60.215 42.0938 60.715 42.2812C62.1838 42.8281 62.9181 44.0469 62.9181 45.9375V51.0938C62.9181 51.2656 62.9259 51.4219 62.9416 51.5625C63.0197 52.125 63.3244 52.4062 63.8556 52.4062C63.9806 52.4062 64.09 52.3984 64.1838 52.3828L64.2775 54.1641C63.8713 54.2578 63.4963 54.3047 63.1525 54.3047ZM58.4416 52.3359C58.5666 52.3359 58.6916 52.3281 58.8166 52.3125C59.9259 52.125 60.4806 51.25 60.4806 49.6875V48.6562C60.2775 48.6406 59.9494 48.6328 59.4963 48.6328C57.7619 48.6484 56.8791 49.3281 56.8478 50.6719C56.8478 50.875 56.8713 51.0625 56.9181 51.2344C57.1213 51.9688 57.6291 52.3359 58.4416 52.3359ZM72.3166 53.4141C71.3947 53.9922 70.5041 54.2891 69.6447 54.3047C69.3791 54.3047 69.1134 54.2812 68.8478 54.2344C67.3634 53.9062 66.6213 52.7188 66.6213 50.6719V44.1094H65.0041V42.2812H66.6213V39.1172H69.0588V42.2812H71.6369V44.1094H69.0588V50.4141C69.0744 51.6484 69.5197 52.2812 70.3947 52.3125C70.7541 52.3125 71.1759 52.1797 71.6603 51.9141L72.3166 53.4141ZM80.8947 50.6719C80.8947 51.5312 80.6447 52.2734 80.1447 52.8984C79.3634 53.8359 78.2463 54.3047 76.7931 54.3047C75.3869 54.3047 74.1134 53.8594 72.9728 52.9688L73.8869 51.4922C74.7775 52.0859 75.715 52.3906 76.6994 52.4062C76.9181 52.4062 77.1291 52.3828 77.3322 52.3359C78.0978 52.1172 78.4806 51.6172 78.4806 50.8359C78.4806 50.5703 78.4025 50.3203 78.2463 50.0859C78.0119 49.7422 77.4103 49.3516 76.4416 48.9141C75.9103 48.6641 75.5197 48.4688 75.2697 48.3281C74.0041 47.5938 73.3713 46.5781 73.3713 45.2812C73.3713 44.4844 73.6525 43.7891 74.215 43.1953C74.9963 42.3828 76.0275 41.9766 77.3088 41.9766C77.5275 41.9766 77.7541 41.9922 77.9884 42.0234C79.4103 42.2109 80.3947 42.875 80.9416 44.0156L79.3478 44.9531C79.3166 44.9062 79.2775 44.8438 79.2306 44.7656C78.7931 44.1406 78.1681 43.8281 77.3556 43.8281C77.1681 43.8281 76.9806 43.8516 76.7931 43.8984C76.1213 44.1016 75.7853 44.5469 75.7853 45.2344C75.7853 45.4844 75.8634 45.7266 76.0197 45.9609C76.2541 46.2891 76.8556 46.6797 77.8244 47.1328C78.3556 47.3672 78.7463 47.5547 78.9963 47.6953C80.2619 48.4297 80.8947 49.4219 80.8947 50.6719Z" fill="#149ED7"/>
</g>
<defs>
<clipPath id="clip0_1120_3008">
<rect width="110.333" height="58" fill="white" transform="translate(0.333496)"/>
</clipPath>
</defs>
</svg>
