<svg width="29" height="29" viewBox="0 0 29 29" fill="none" xmlns="http://www.w3.org/2000/svg">
<path d="M23.25 16.7305V13.668C23.25 12.6237 22.8352 11.6222 22.0967 10.8837C21.3583 10.1453 20.3568 9.73047 19.3125 9.73047H17.5625C17.2144 9.73047 16.8806 9.59219 16.6344 9.34605C16.3883 9.0999 16.25 8.76607 16.25 8.41797V6.66797C16.25 5.62368 15.8352 4.62216 15.0967 3.88374C14.3583 3.14531 13.3568 2.73047 12.3125 2.73047H10.125M10.125 17.6055H18.875M10.125 21.1055H14.5M12.75 2.73047H7.0625C6.338 2.73047 5.75 3.31847 5.75 4.04297V24.168C5.75 24.8925 6.338 25.4805 7.0625 25.4805H21.9375C22.662 25.4805 23.25 24.8925 23.25 24.168V13.2305C23.25 10.4457 22.1438 7.77498 20.1746 5.80585C18.2055 3.83672 15.5348 2.73047 12.75 2.73047Z" stroke="black" stroke-width="1.5" stroke-linecap="round" stroke-linejoin="round"/>
</svg>
