<svg width="35" height="35" viewBox="0 0 35 35" fill="none" xmlns="http://www.w3.org/2000/svg">
<path d="M24.0166 8.85035C23.0482 7.74481 22.5146 6.32504 22.515 4.85535H18.1375V22.422C18.1037 23.3726 17.7024 24.2731 17.018 24.9337C16.3336 25.5943 15.4195 25.9635 14.4683 25.9637C12.4566 25.9637 10.785 24.3203 10.785 22.2803C10.785 19.8437 13.1366 18.0162 15.5591 18.767V14.2903C10.6716 13.6387 6.39331 17.4353 6.39331 22.2803C6.39331 26.9978 10.3033 30.3553 14.4541 30.3553C18.9025 30.3553 22.515 26.7428 22.515 22.2803V13.3695C24.2901 14.6443 26.4212 15.3283 28.6066 15.3245V10.947C28.6066 10.947 25.9433 11.0745 24.0166 8.85035Z" fill="#2F2F2F"/>
</svg>
