<svg width="25" height="14" viewBox="0 0 25 14" fill="none" xmlns="http://www.w3.org/2000/svg">
<path d="M0.74 8.18L6.26 0.859999C6.40667 0.819999 6.58 0.786666 6.78 0.759999C6.98 0.733333 7.16 0.72 7.32 0.72C7.56 0.72 7.78667 0.753333 8 0.819999C8.21333 0.886666 8.38667 1.00667 8.52 1.18C8.66667 1.34 8.74 1.58667 8.74 1.92V8.5H10.64C10.68 8.58 10.7267 8.69333 10.78 8.84C10.8333 8.98667 10.86 9.14667 10.86 9.32C10.86 9.6 10.7867 9.81333 10.64 9.96C10.5067 10.1067 10.3267 10.18 10.1 10.18H8.74V13.02C8.66 13.0333 8.53333 13.06 8.36 13.1C8.18667 13.14 8.01333 13.16 7.84 13.16C7.48 13.16 7.20667 13.1 7.02 12.98C6.83333 12.8467 6.74 12.6133 6.74 12.28V10.18H1.22C1.04667 10.0867 0.893333 9.94 0.76 9.74C0.626667 9.52667 0.56 9.28667 0.56 9.02C0.56 8.86 0.573333 8.71333 0.6 8.58C0.64 8.43333 0.686667 8.3 0.74 8.18ZM6.8 8.5L6.82 2.82H6.78L2.84 8.5H6.8ZM11.5905 11.96C11.5905 11.5867 11.7038 11.2733 11.9305 11.02C12.1705 10.7667 12.4905 10.64 12.8905 10.64C13.3038 10.64 13.6238 10.7667 13.8505 11.02C14.0771 11.2733 14.1905 11.5867 14.1905 11.96C14.1905 12.3333 14.0771 12.6467 13.8505 12.9C13.6238 13.1533 13.3038 13.28 12.8905 13.28C12.4905 13.28 12.1705 13.1533 11.9305 12.9C11.7038 12.6467 11.5905 12.3333 11.5905 11.96ZM18.948 0.839999L18.428 2.22L18.108 5.72C18.348 5.61333 18.648 5.51333 19.008 5.42C19.3813 5.31333 19.788 5.26 20.228 5.26C21.068 5.26 21.8013 5.42 22.428 5.74C23.0546 6.04667 23.548 6.49333 23.908 7.08C24.268 7.66667 24.448 8.36667 24.448 9.18C24.448 9.95333 24.268 10.6467 23.908 11.26C23.5613 11.8733 23.0413 12.3667 22.348 12.74C21.668 13.1 20.8146 13.28 19.788 13.28C19.0146 13.28 18.3346 13.1933 17.748 13.02C17.1746 12.8467 16.7213 12.6267 16.388 12.36C16.068 12.08 15.908 11.7933 15.908 11.5C15.908 11.2467 15.988 11.0267 16.148 10.84C16.308 10.6533 16.4746 10.52 16.648 10.44C16.9546 10.7067 17.3613 10.9667 17.868 11.22C18.3746 11.4733 18.9946 11.6 19.728 11.6C20.5813 11.6 21.228 11.3733 21.668 10.92C22.1213 10.4533 22.348 9.88 22.348 9.2C22.348 8.49333 22.1213 7.94 21.668 7.54C21.2146 7.12667 20.6013 6.92 19.828 6.92C19.388 6.92 18.9946 6.98667 18.648 7.12C18.3013 7.25333 17.9613 7.40667 17.628 7.58C17.2013 7.55333 16.8546 7.42667 16.588 7.2C16.3346 6.97333 16.208 6.66 16.208 6.26C16.208 6.18 16.208 6.08 16.208 5.96C16.2213 5.84 16.2346 5.71333 16.248 5.58L16.548 2C16.588 1.64 16.7013 1.36 16.888 1.16C17.0746 0.946666 17.348 0.839999 17.708 0.839999H18.948ZM17.968 2.54V0.839999H23.728C23.7813 0.919999 23.828 1.03333 23.868 1.18C23.9213 1.32667 23.948 1.48 23.948 1.64C23.948 1.93333 23.8813 2.16 23.748 2.32C23.6146 2.46667 23.428 2.54 23.188 2.54H17.968Z" fill="#1D3D8F"/>
</svg>
