<svg width="421" height="213" viewBox="0 0 421 213" fill="none" xmlns="http://www.w3.org/2000/svg">
<rect y="7" width="421" height="186" rx="20" fill="white"/>
<path d="M183.71 93.19C179.347 93.19 175.607 92.3967 172.49 90.81C169.373 89.2233 166.993 86.985 165.35 84.095C163.763 81.1483 162.97 77.7483 162.97 73.895V67.35H171.81V73.385C171.81 77.465 172.943 80.5533 175.21 82.65C177.477 84.7467 180.31 85.795 183.71 85.795C187.11 85.795 189.943 84.7467 192.21 82.65C194.477 80.5533 195.61 77.465 195.61 73.385V67.35H204.535V73.895C204.535 77.7483 203.713 81.1483 202.07 84.095C200.483 86.985 198.132 89.2233 195.015 90.81C191.898 92.3967 188.13 93.19 183.71 93.19ZM171.81 70.58H162.97V40.405C163.31 40.2917 163.877 40.1783 164.67 40.065C165.463 39.895 166.257 39.81 167.05 39.81C168.693 39.81 169.883 40.1217 170.62 40.745C171.413 41.3117 171.81 42.36 171.81 43.89V70.58ZM204.535 70.58H195.61V40.405C196.007 40.2917 196.573 40.1783 197.31 40.065C198.103 39.895 198.925 39.81 199.775 39.81C201.418 39.81 202.608 40.1217 203.345 40.745C204.138 41.3117 204.535 42.36 204.535 43.89V70.58ZM218.587 49.16L226.322 48.735C226.549 50.7183 226.747 52.9 226.917 55.28C227.087 57.66 227.201 60.0683 227.257 62.505C227.314 64.885 227.342 67.18 227.342 69.39V91.83C227.002 91.9433 226.436 92.085 225.642 92.255C224.906 92.425 224.141 92.51 223.347 92.51C221.704 92.51 220.486 92.1983 219.692 91.575C218.956 90.9517 218.587 89.9317 218.587 88.515V49.16ZM261.002 83.16L253.182 83.5C252.672 78.9667 252.361 74.4333 252.247 69.9C252.191 65.31 252.162 60.89 252.162 56.64V40.405C252.616 40.2917 253.211 40.1783 253.947 40.065C254.684 39.895 255.449 39.81 256.242 39.81C257.886 39.81 259.076 40.1217 259.812 40.745C260.606 41.3117 261.002 42.3317 261.002 43.805V83.16ZM261.002 80.1V90.81C260.436 91.32 259.642 91.7167 258.622 92C257.659 92.34 256.554 92.51 255.307 92.51C253.777 92.51 252.417 92.255 251.227 91.745C250.037 91.1783 248.989 90.045 248.082 88.345L233.887 63.695C233.094 62.2217 232.244 60.6633 231.337 59.02C230.487 57.3767 229.666 55.79 228.872 54.26C228.079 52.73 227.427 51.3983 226.917 50.265L218.587 52.22V41.765C219.154 41.1417 219.947 40.66 220.967 40.32C221.987 39.98 223.092 39.81 224.282 39.81C225.812 39.81 227.172 40.0933 228.362 40.66C229.552 41.2267 230.601 42.3317 231.507 43.975L245.787 68.625C246.637 70.0417 247.487 71.6 248.337 73.3C249.187 74.9433 249.981 76.53 250.717 78.06C251.511 79.59 252.162 80.9217 252.672 82.055L261.002 80.1ZM293.901 47.46H293.476C292.739 49.67 291.832 52.2483 290.756 55.195C289.736 58.085 288.687 61.1167 287.611 64.29C286.534 67.4067 285.514 70.3533 284.551 73.13L283.786 76.53C283.446 77.55 283.049 78.7683 282.596 80.185C282.142 81.6017 281.661 83.075 281.151 84.605C280.697 86.0783 280.244 87.4667 279.791 88.77C279.337 90.0733 278.997 91.1783 278.771 92.085C278.261 92.255 277.722 92.3967 277.156 92.51C276.646 92.68 275.994 92.765 275.201 92.765C273.841 92.765 272.707 92.4533 271.801 91.83C270.894 91.2067 270.441 90.2717 270.441 89.025C270.441 88.4583 270.526 87.8917 270.696 87.325C270.922 86.7017 271.149 86.0217 271.376 85.285C271.999 83.3583 272.792 81.0067 273.756 78.23C274.719 75.3967 275.796 72.3367 276.986 69.05C278.176 65.7633 279.394 62.4483 280.641 59.105C281.887 55.705 283.077 52.4467 284.211 49.33C285.401 46.2133 286.449 43.4933 287.356 41.17C287.922 40.8867 288.801 40.6033 289.991 40.32C291.181 39.98 292.371 39.81 293.561 39.81C295.147 39.81 296.592 40.0367 297.896 40.49C299.256 40.9433 300.106 41.7083 300.446 42.785C301.749 45.9583 303.109 49.6133 304.526 53.75C305.999 57.83 307.472 62.08 308.946 66.5C310.476 70.92 311.921 75.2267 313.281 79.42C314.641 83.6133 315.859 87.41 316.936 90.81C316.482 91.3767 315.831 91.83 314.981 92.17C314.131 92.51 313.196 92.68 312.176 92.68C310.646 92.68 309.541 92.3967 308.861 91.83C308.181 91.2067 307.614 90.2433 307.161 88.94L303.166 76.53L302.231 72.535C301.211 69.3617 300.162 66.2167 299.086 63.1C298.066 59.9267 297.102 57.0083 296.196 54.345C295.289 51.625 294.524 49.33 293.901 47.46ZM279.706 78.995L282.851 71.855H305.291L306.736 78.995H279.706Z" fill="#1D3D8F"/>
<path d="M193.995 155.74C193.542 156.08 192.918 156.392 192.125 156.675C191.332 156.958 190.453 157.1 189.49 157.1C188.3 157.1 187.28 156.93 186.43 156.59C185.58 156.25 184.985 155.683 184.645 154.89C181.982 148.883 179.687 143.528 177.76 138.825C175.833 134.065 174.303 130.098 173.17 126.925H172.745C172.575 130.948 172.405 134.688 172.235 138.145C172.065 141.602 171.895 144.945 171.725 148.175C171.555 151.405 171.385 154.72 171.215 158.12C171.045 161.463 170.847 165.062 170.62 168.915C170.167 169.028 169.572 169.142 168.835 169.255C168.155 169.425 167.447 169.51 166.71 169.51C165.123 169.51 163.962 169.227 163.225 168.66C162.488 168.037 162.12 167.13 162.12 165.94C162.12 165.09 162.177 163.447 162.29 161.01C162.46 158.517 162.63 155.542 162.8 152.085C163.027 148.628 163.253 144.973 163.48 141.12C163.763 137.21 164.047 133.357 164.33 129.56C164.67 125.763 164.953 122.307 165.18 119.19C165.633 118.737 166.37 118.283 167.39 117.83C168.41 117.32 169.685 117.065 171.215 117.065C172.915 117.065 174.303 117.377 175.38 118C176.513 118.623 177.363 119.587 177.93 120.89C179.233 123.553 180.537 126.472 181.84 129.645C183.143 132.762 184.418 135.935 185.665 139.165C186.912 142.338 188.102 145.285 189.235 148.005H189.66C191.87 142.338 194.052 136.87 196.205 131.6C198.415 126.273 200.285 121.768 201.815 118.085C202.438 117.802 203.203 117.575 204.11 117.405C205.073 117.178 206.008 117.065 206.915 117.065C208.558 117.065 209.89 117.348 210.91 117.915C211.93 118.425 212.553 119.218 212.78 120.295C213.007 121.315 213.262 122.987 213.545 125.31C213.828 127.633 214.112 130.353 214.395 133.47C214.678 136.587 214.933 139.845 215.16 143.245C215.443 146.645 215.698 149.988 215.925 153.275C216.208 156.505 216.435 159.452 216.605 162.115C216.775 164.722 216.888 166.818 216.945 168.405C216.322 168.802 215.67 169.085 214.99 169.255C214.31 169.425 213.488 169.51 212.525 169.51C211.392 169.51 210.372 169.283 209.465 168.83C208.615 168.32 208.133 167.357 208.02 165.94C207.737 160.783 207.453 155.768 207.17 150.895C206.887 145.965 206.66 141.46 206.49 137.38C206.32 133.243 206.15 129.843 205.98 127.18H205.64C204.563 130.07 203.062 133.782 201.135 138.315C199.265 142.792 196.885 148.6 193.995 155.74ZM248.91 124.46H248.485C247.749 126.67 246.842 129.248 245.765 132.195C244.745 135.085 243.697 138.117 242.62 141.29C241.544 144.407 240.524 147.353 239.56 150.13L238.795 153.53C238.455 154.55 238.059 155.768 237.605 157.185C237.152 158.602 236.67 160.075 236.16 161.605C235.707 163.078 235.254 164.467 234.8 165.77C234.347 167.073 234.007 168.178 233.78 169.085C233.27 169.255 232.732 169.397 232.165 169.51C231.655 169.68 231.004 169.765 230.21 169.765C228.85 169.765 227.717 169.453 226.81 168.83C225.904 168.207 225.45 167.272 225.45 166.025C225.45 165.458 225.535 164.892 225.705 164.325C225.932 163.702 226.159 163.022 226.385 162.285C227.009 160.358 227.802 158.007 228.765 155.23C229.729 152.397 230.805 149.337 231.995 146.05C233.185 142.763 234.404 139.448 235.65 136.105C236.897 132.705 238.087 129.447 239.22 126.33C240.41 123.213 241.459 120.493 242.365 118.17C242.932 117.887 243.81 117.603 245 117.32C246.19 116.98 247.38 116.81 248.57 116.81C250.157 116.81 251.602 117.037 252.905 117.49C254.265 117.943 255.115 118.708 255.455 119.785C256.759 122.958 258.119 126.613 259.535 130.75C261.009 134.83 262.482 139.08 263.955 143.5C265.485 147.92 266.93 152.227 268.29 156.42C269.65 160.613 270.869 164.41 271.945 167.81C271.492 168.377 270.84 168.83 269.99 169.17C269.14 169.51 268.205 169.68 267.185 169.68C265.655 169.68 264.55 169.397 263.87 168.83C263.19 168.207 262.624 167.243 262.17 165.94L258.175 153.53L257.24 149.535C256.22 146.362 255.172 143.217 254.095 140.1C253.075 136.927 252.112 134.008 251.205 131.345C250.299 128.625 249.534 126.33 248.91 124.46ZM234.715 155.995L237.86 148.855H260.3L261.745 155.995H234.715ZM281.175 126.16L288.91 125.735C289.137 127.718 289.335 129.9 289.505 132.28C289.675 134.66 289.788 137.068 289.845 139.505C289.902 141.885 289.93 144.18 289.93 146.39V168.83C289.59 168.943 289.023 169.085 288.23 169.255C287.493 169.425 286.728 169.51 285.935 169.51C284.292 169.51 283.073 169.198 282.28 168.575C281.543 167.952 281.175 166.932 281.175 165.515V126.16ZM323.59 160.16L315.77 160.5C315.26 155.967 314.948 151.433 314.835 146.9C314.778 142.31 314.75 137.89 314.75 133.64V117.405C315.203 117.292 315.798 117.178 316.535 117.065C317.272 116.895 318.037 116.81 318.83 116.81C320.473 116.81 321.663 117.122 322.4 117.745C323.193 118.312 323.59 119.332 323.59 120.805V160.16ZM323.59 157.1V167.81C323.023 168.32 322.23 168.717 321.21 169C320.247 169.34 319.142 169.51 317.895 169.51C316.365 169.51 315.005 169.255 313.815 168.745C312.625 168.178 311.577 167.045 310.67 165.345L296.475 140.695C295.682 139.222 294.832 137.663 293.925 136.02C293.075 134.377 292.253 132.79 291.46 131.26C290.667 129.73 290.015 128.398 289.505 127.265L281.175 129.22V118.765C281.742 118.142 282.535 117.66 283.555 117.32C284.575 116.98 285.68 116.81 286.87 116.81C288.4 116.81 289.76 117.093 290.95 117.66C292.14 118.227 293.188 119.332 294.095 120.975L308.375 145.625C309.225 147.042 310.075 148.6 310.925 150.3C311.775 151.943 312.568 153.53 313.305 155.06C314.098 156.59 314.75 157.922 315.26 159.055L323.59 157.1ZM385.303 143.16C385.303 149.053 384.198 154.012 381.988 158.035C379.778 162.058 376.775 165.09 372.978 167.13C369.182 169.17 364.875 170.19 360.058 170.19C355.298 170.19 350.992 169.17 347.138 167.13C343.342 165.09 340.338 162.058 338.128 158.035C335.918 154.012 334.813 149.053 334.813 143.16C334.813 137.267 335.947 132.308 338.213 128.285C340.48 124.262 343.512 121.23 347.308 119.19C351.105 117.15 355.355 116.13 360.058 116.13C364.818 116.13 369.097 117.15 372.893 119.19C376.69 121.23 379.693 124.262 381.903 128.285C384.17 132.308 385.303 137.267 385.303 143.16ZM376.123 143.16C376.123 136.813 374.65 131.968 371.703 128.625C368.813 125.225 364.932 123.525 360.058 123.525C355.242 123.525 351.36 125.225 348.413 128.625C345.467 131.968 343.993 136.813 343.993 143.16C343.993 149.507 345.438 154.38 348.328 157.78C351.275 161.123 355.185 162.795 360.058 162.795C364.988 162.795 368.898 161.123 371.788 157.78C374.678 154.38 376.123 149.507 376.123 143.16Z" fill="#1D3D8F"/>
<rect width="21" height="78.4346" rx="8" transform="matrix(-0.731354 0.681998 0.681998 0.731354 43.3584 43.9066)" fill="#1D3D8F"/>
<rect width="21" height="126" rx="8" transform="matrix(-1 0 0 1 51.8506 43)" fill="#1D3D8F"/>
<circle cx="40.5" cy="38.5" r="19.5" fill="#1D3D8F" stroke="white" stroke-width="4"/>
<rect x="121.418" y="41.7865" width="24" height="81.4346" rx="9.5" transform="rotate(43 121.418 41.7865)" fill="#149ED7" stroke="white" stroke-width="3"/>
<rect x="113" y="43" width="21" height="126" rx="8" fill="#149ED7"/>
<circle cx="122.5" cy="38.5" r="19.5" fill="#149ED7" stroke="white" stroke-width="4"/>
</svg>
