<svg width="202" height="85" viewBox="0 0 202 85" fill="none" xmlns="http://www.w3.org/2000/svg">
<path d="M20.0302 27.2053C18.2685 27.2053 16.635 26.6482 15.302 25.6944V24.3643H25.4235L25.7065 24.9068C24.2422 26.3361 22.2354 27.2053 20.0332 27.2053H20.0302Z" fill="#7600FA"/>
<path d="M25.0966 39.7012C25.0966 39.8733 25.8054 40.4012 25.9192 40.515C26.6017 41.1888 27.2901 41.8655 27.9726 42.5393C29.3231 43.8752 30.6737 45.2024 32.0242 46.5325C32.4938 46.9963 32.8584 47.5534 33.3018 48.0434C33.3484 48.0901 33.3951 48.1426 33.4359 48.1893C33.9785 45.812 35.116 44.1523 36.137 42.6997C36.8983 41.6059 38.0825 40.1358 39.8035 38.6423C39.6255 38.4907 39.4447 38.3507 39.2872 38.2106C36.7378 35.8684 34.1885 33.5349 31.6391 31.1927C29.9444 29.638 28.2497 28.0862 26.555 26.5315C24.8078 28.0541 22.5239 28.9758 20.0271 28.9758C18.3178 28.9758 16.7048 28.5441 15.2988 27.7828V69.2286C15.2988 71.9326 17.4923 74.1261 20.1963 74.1261C22.9002 74.1261 25.0937 71.9326 25.0937 69.2286V39.7041L25.0966 39.7012Z" fill="#149ED7"/>
<path d="M64.5269 27.2841C62.9372 28.3517 61.0237 28.9788 58.9702 28.9788C56.7971 28.9788 54.7845 28.2787 53.1452 27.0974C50.1 30.3847 46.9527 33.6079 43.995 36.9739C41.1948 40.1621 37.4816 42.8806 35.8803 46.9467C35.5798 47.7109 35.364 48.5364 35.4748 49.3502C35.5886 50.1815 36.0407 50.937 36.5978 51.567C37.1695 52.2146 37.8783 52.763 38.7038 53.0196C39.8647 53.3813 41.1511 53.1305 42.242 52.5909C46.1039 50.6861 48.7583 46.7309 51.643 43.6857C52.1331 43.1694 52.6056 42.6297 53.0898 42.1076C53.3494 41.8247 54.6562 40.7688 54.6562 40.4188V69.1937C54.6562 71.921 56.8672 74.1319 59.5944 74.1319C62.3217 74.1319 64.5327 71.921 64.5327 69.1937V27.2841H64.5269Z" fill="#1D3D8F"/>
<path d="M28.1944 19.0381C28.1944 21.3424 27.2405 23.4222 25.7034 24.9039C24.2391 26.3332 22.2323 27.2024 20.03 27.2024C18.2683 27.2024 16.6348 26.6453 15.3018 25.6915C13.2221 24.2155 11.8657 21.7858 11.8657 19.0381C11.8657 14.5286 15.5206 10.8738 20.03 10.8738C24.5395 10.8738 28.1944 14.5286 28.1944 19.0381Z" fill="#149ED7"/>
<path d="M67.1345 19.0381C67.1345 21.4008 66.1341 23.5271 64.5269 25.0118C63.0713 26.374 61.117 27.2024 58.9702 27.2024C57.0918 27.2024 55.3562 26.5665 53.9795 25.496C52.0456 24.0055 50.803 21.6633 50.803 19.0352C50.803 14.5257 54.4578 10.8708 58.9673 10.8708C63.4768 10.8708 67.1316 14.5257 67.1316 19.0352L67.1345 19.0381Z" fill="#1D3D8F"/>
<path d="M101.894 41.1295C99.0205 41.0972 97.4225 39.5638 97.0996 36.5292C96.8736 36.8843 96.6315 37.2556 96.3733 37.6429C94.6623 39.9028 92.5316 41.0327 89.9812 41.0327C89.0127 41.0327 88.0926 40.9035 87.221 40.6453C84.0573 39.6445 82.4754 37.0134 82.4754 32.7521V16.2877H87.5116V32.2194C87.5116 32.6391 87.5438 33.0426 87.6084 33.43C87.9312 35.8835 89.158 37.1103 91.2887 37.1103C92.0312 37.1103 92.7253 36.9166 93.3709 36.5292C95.3402 35.367 96.3248 32.9135 96.3248 29.1686V16.2877H101.361V34.4953C101.361 34.8182 101.377 35.1087 101.409 35.367C101.571 36.5937 102.2 37.2071 103.298 37.2071C103.556 37.2071 103.798 37.191 104.024 37.1587L104.17 40.839C103.363 41.0327 102.604 41.1295 101.894 41.1295ZM132.3 37.1587L132.494 40.839C131.719 41.0004 131.025 41.0811 130.412 41.0811C127.119 41.0488 125.44 39.2087 125.376 35.5607V24.5683C125.376 23.9226 125.311 23.3254 125.182 22.7766C124.73 20.7105 123.616 19.6774 121.841 19.6774C121.163 19.6774 120.501 19.855 119.855 20.2101C117.821 21.3723 116.805 23.8581 116.805 27.6675V40.5H111.768V16.2877H116.611L116.708 19.629C118.29 17.0141 120.501 15.6905 123.342 15.6582C124.504 15.6582 125.569 15.8842 126.538 16.3361C129.121 17.5952 130.412 20.1617 130.412 24.0356V35.2217C130.412 35.48 130.428 35.7221 130.46 35.9481C130.589 36.9166 131.203 37.3201 132.3 37.1587ZM156.703 41.1295C154.184 41.0972 152.651 39.935 152.102 37.6429C151.973 37.8366 151.828 38.0465 151.666 38.2725C150.246 40.1772 148.309 41.1295 145.855 41.1295C144.467 41.1295 143.192 40.8067 142.03 40.161C139.706 38.8697 138.543 36.6906 138.543 33.6237C138.543 32.2033 138.915 30.9281 139.657 29.7982C141.336 27.2801 144.419 26.021 148.906 26.021C149.326 26.021 150.085 26.0533 151.182 26.1179V24.0356C151.053 21.5498 149.713 20.1778 147.163 19.9195C145.484 19.9195 143.467 20.5813 141.11 21.905L139.367 18.2247C139.431 18.1924 139.496 18.144 139.56 18.0794C142.272 16.4975 145.161 15.7066 148.228 15.7066C149.487 15.7066 150.633 15.9003 151.666 16.2877C154.701 17.4176 156.218 19.9357 156.218 23.8419V34.4953C156.218 34.8505 156.234 35.1733 156.267 35.4638C156.428 36.626 157.058 37.2071 158.155 37.2071C158.414 37.2071 158.64 37.191 158.833 37.1587L159.027 40.839C158.188 41.0327 157.413 41.1295 156.703 41.1295ZM146.969 37.0619C147.227 37.0619 147.486 37.0457 147.744 37.0134C150.036 36.626 151.182 34.8182 151.182 31.5899V29.4592C150.762 29.4269 150.085 29.4108 149.148 29.4108C145.565 29.443 143.741 30.8474 143.676 33.6237C143.676 34.0434 143.725 34.4308 143.822 34.7859C144.241 36.3032 145.291 37.0619 146.969 37.0619ZM114 57.0356V68.2217C114 68.48 114.016 68.7221 114.048 68.9481C114.177 69.9166 114.807 70.3201 115.937 70.1587L116.13 73.8874C115.485 74.0165 114.855 74.0811 114.242 74.0811C110.723 74.1779 108.964 72.3378 108.964 68.5607V57.5199C108.964 56.8419 108.899 56.2124 108.77 55.6313C108.35 53.6298 107.333 52.629 105.719 52.629C105.138 52.629 104.573 52.7581 104.024 53.0164C101.958 54.0495 100.925 56.5514 100.925 60.5222V73.5H95.889V57.5199C95.889 56.8742 95.8244 56.277 95.6953 55.7282C95.2756 53.6621 94.1941 52.629 92.4509 52.629C91.8052 52.629 91.1757 52.7904 90.5623 53.1132C88.5285 54.2431 87.5116 56.7128 87.5116 60.5222V73.5H82.4754V49.2877H87.2694L87.3663 52.5806C87.4954 52.3546 87.6407 52.1286 87.8021 51.9026C89.4485 49.7397 91.4985 48.6582 93.952 48.6582C94.3394 48.6582 94.7268 48.6905 95.1142 48.755C97.6323 49.1424 99.3594 50.6436 100.296 53.2585C100.457 52.968 100.635 52.6613 100.828 52.3384C102.507 49.8849 104.638 48.6582 107.22 48.6582C108.383 48.6582 109.448 48.9164 110.416 49.433C112.805 50.7889 114 53.3231 114 57.0356ZM140.387 74.1295C137.869 74.0972 136.336 72.935 135.787 70.6429C135.658 70.8366 135.513 71.0465 135.351 71.2725C133.931 73.1772 131.994 74.1295 129.54 74.1295C128.152 74.1295 126.877 73.8067 125.715 73.161C123.39 71.8697 122.228 69.6906 122.228 66.6237C122.228 65.2033 122.599 63.9281 123.342 62.7982C125.021 60.2801 128.104 59.021 132.591 59.021C133.011 59.021 133.769 59.0533 134.867 59.1179V57.0356C134.738 54.5498 133.398 53.1778 130.848 52.9195C129.169 52.9195 127.151 53.5813 124.795 54.905L123.051 51.2247C123.116 51.1924 123.18 51.144 123.245 51.0794C125.957 49.4975 128.846 48.7066 131.913 48.7066C133.172 48.7066 134.318 48.9003 135.351 49.2877C138.386 50.4176 139.903 52.9357 139.903 56.8419V67.4953C139.903 67.8505 139.919 68.1733 139.952 68.4638C140.113 69.626 140.742 70.2071 141.84 70.2071C142.098 70.2071 142.324 70.191 142.518 70.1587L142.712 73.839C141.872 74.0327 141.098 74.1295 140.387 74.1295ZM130.654 70.0619C130.912 70.0619 131.171 70.0457 131.429 70.0134C133.721 69.626 134.867 67.8182 134.867 64.5899V62.4592C134.447 62.4269 133.769 62.4108 132.833 62.4108C129.25 62.443 127.426 63.8474 127.361 66.6237C127.361 67.0434 127.41 67.4308 127.506 67.7859C127.926 69.3032 128.975 70.0619 130.654 70.0619ZM170.649 70.1587L170.843 73.839C170.068 74.0004 169.374 74.0811 168.76 74.0811C165.467 74.0488 163.789 72.2087 163.724 68.5607V57.5683C163.724 56.9226 163.66 56.3254 163.53 55.7766C163.078 53.7105 161.965 52.6774 160.189 52.6774C159.511 52.6774 158.849 52.855 158.204 53.2101C156.17 54.3723 155.153 56.8581 155.153 60.6675V73.5H150.117V49.2877H154.959L155.056 52.629C156.638 50.0141 158.849 48.6905 161.69 48.6582C162.852 48.6582 163.918 48.8842 164.886 49.3361C167.469 50.5952 168.76 53.1617 168.76 57.0356V68.2217C168.76 68.48 168.776 68.7221 168.809 68.9481C168.938 69.9166 169.551 70.3201 170.649 70.1587ZM188.223 70.0134C188.966 70.0134 189.66 69.8682 190.305 69.5776C192.565 68.48 193.695 65.7843 193.695 61.4907C193.695 60.0057 193.55 58.6821 193.259 57.5199C192.484 54.3561 190.838 52.7743 188.32 52.7743C187.513 52.7743 186.754 52.968 186.044 53.3554C183.881 54.5498 182.8 57.2293 182.8 61.3938C182.8 62.9434 182.961 64.3316 183.284 65.5584C184.123 68.5284 185.77 70.0134 188.223 70.0134ZM188.417 48.6582C190.483 48.6582 192.291 49.1101 193.84 50.0141C197.166 52.0156 198.828 55.8089 198.828 61.3938C198.828 64.1379 198.36 66.5107 197.424 68.5123C195.616 72.2571 192.484 74.1295 188.029 74.1295C185.866 74.1295 183.994 73.6291 182.412 72.6284C179.216 70.5622 177.618 66.8497 177.618 61.4907C177.618 58.5529 178.183 56.0187 179.313 53.888C181.218 50.4015 184.252 48.6582 188.417 48.6582Z" fill="#1D3D8F"/>
</svg>
